<?xml version="1.0" standalone="no"?>
<!DOCTYPE svg PUBLIC "-//W3C//DTD SVG 20010904//EN"
 "http://www.w3.org/TR/2001/REC-SVG-20010904/DTD/svg10.dtd">
<svg version="1.0" xmlns="http://www.w3.org/2000/svg"
 width="1024.000000pt" height="1024.000000pt" viewBox="0 0 1024.000000 1024.000000"
 preserveAspectRatio="xMidYMid meet">

<g transform="translate(0.000000,1024.000000) scale(0.100000,-0.100000)"
fill="#000000" stroke="none">
<path d="M4620 10056 c-213 -95 -325 -194 -371 -328 l-17 -52 -93 -18 c-223
-45 -580 -186 -764 -301 -274 -170 -563 -460 -761 -762 -154 -235 -219 -375
-293 -635 -40 -136 -57 -180 -76 -197 -14 -12 -78 -38 -142 -58 -392 -123
-832 -434 -1156 -820 -221 -263 -347 -502 -466 -883 -95 -303 -125 -502 -125
-812 0 -385 50 -649 203 -1058 213 -572 480 -953 896 -1278 332 -260 692 -441
1042 -524 29 -6 56 -17 62 -24 5 -6 22 -45 37 -86 39 -111 129 -302 191 -409
70 -119 253 -362 379 -503 185 -206 345 -338 584 -480 303 -180 513 -265 775
-313 50 -10 117 -27 150 -40 99 -37 196 -54 357 -65 84 -5 171 -14 193 -19 22
-5 108 -12 190 -16 83 -3 178 -11 213 -17 73 -12 89 -7 198 59 84 50 212 173
220 211 16 73 18 76 75 89 481 118 774 282 1137 637 142 140 254 275 351 426
59 93 148 300 216 500 35 104 37 106 81 114 53 10 233 89 337 147 176 99 492
318 657 456 196 165 424 471 565 758 157 323 266 692 296 1005 13 139 7 529
-11 670 -49 387 -292 1020 -524 1364 -130 193 -219 296 -417 487 -213 203
-250 234 -419 350 -211 144 -326 202 -583 294 -46 16 -85 37 -96 51 -10 13
-33 61 -51 106 -50 126 -231 489 -305 613 -168 278 -435 579 -675 762 -213
161 -670 399 -927 482 -190 61 -268 77 -433 86 -69 3 -199 16 -290 27 -91 11
-208 22 -260 24 -84 4 -101 1 -150 -20z m246 -79 c22 -23 33 -75 24 -109 -12
-39 -77 -108 -103 -108 -10 0 -16 4 -13 9 8 13 -13 68 -52 134 -36 62 -34 81
11 91 34 7 121 -4 133 -17z m159 -8 c55 -15 85 -45 85 -85 0 -17 -6 -36 -12
-42 -7 -5 -48 -13 -90 -17 l-78 -7 0 81 0 81 28 0 c15 0 45 -5 67 -11z m488
-49 c38 -12 97 -37 132 -56 44 -25 65 -31 70 -23 9 14 81 7 150 -16 83 -27
400 -192 555 -287 380 -236 685 -560 925 -983 199 -350 351 -739 414 -1060 24
-123 58 -410 67 -565 15 -264 -76 -771 -197 -1100 -54 -145 -184 -416 -223
-465 l-24 -30 -16 40 c-29 68 -107 195 -193 314 -46 62 -83 119 -83 126 0 7 7
18 16 25 76 64 193 452 246 817 40 276 26 724 -33 1018 -53 260 -142 539 -224
700 -134 261 -292 482 -517 721 -58 62 -89 107 -126 181 -81 160 -146 224
-289 287 -112 50 -177 64 -335 75 -163 11 -213 30 -298 111 -82 78 -119 91
-272 98 l-129 5 3 41 c3 39 4 41 43 47 85 13 267 2 338 -21z m-837 -23 c35
-38 69 -118 60 -142 -9 -24 -51 -35 -135 -35 -67 0 -87 4 -138 30 -34 17 -64
38 -67 46 -11 27 30 68 106 107 89 46 127 45 174 -6z m505 -166 c-2 -34 2 -48
20 -67 12 -13 30 -24 40 -24 19 0 31 -23 22 -45 -11 -29 78 -8 110 26 32 35
33 40 8 70 l-18 23 -28 -22 c-38 -30 -51 -28 -26 4 12 15 21 39 21 54 0 27 1
28 40 18 44 -11 80 -56 80 -99 0 -42 -35 -87 -72 -93 -127 -19 -168 -13 -213
34 -36 38 -48 126 -20 154 27 26 40 14 36 -33z m-752 -20 c27 -19 44 -65 35
-94 -4 -13 -12 -15 -32 -10 -29 7 -73 32 -84 48 -10 13 -10 70 -1 79 10 10 54
-2 82 -23z m329 -57 c28 -6 28 -18 -2 -57 -13 -18 -29 -48 -35 -67 -6 -19 -18
-44 -26 -54 -14 -19 -16 -18 -81 14 -75 38 -104 70 -104 112 0 62 9 67 122 61
57 -2 113 -6 126 -9z m193 -43 c35 -11 79 -22 97 -26 40 -8 41 -29 8 -101 -13
-28 -27 -66 -31 -85 -4 -19 -11 -44 -16 -56 l-8 -22 -83 35 c-114 49 -178 85
-178 101 0 46 96 173 131 173 9 0 45 -9 80 -19z m-630 -30 c38 -39 37 -49 -8
-56 -261 -42 -475 -100 -618 -170 -27 -13 -59 -27 -70 -31 -12 -4 -15 -8 -7
-11 6 -3 65 16 131 41 155 61 161 63 335 92 82 13 152 27 157 30 5 3 53 9 106
13 94 8 101 7 175 -21 l78 -30 0 -59 c0 -70 14 -83 97 -92 l52 -6 -6 30 c-3
17 -1 29 5 29 45 0 58 -44 17 -60 -46 -17 -26 -22 68 -15 l94 7 157 -62 c86
-34 155 -65 152 -67 -3 -3 -81 0 -174 7 -206 15 -484 9 -607 -15 -217 -41
-338 -70 -458 -111 -166 -56 -252 -98 -362 -179 -49 -36 -112 -81 -140 -100
-140 -95 -427 -443 -466 -564 -6 -20 -27 -71 -45 -114 -19 -43 -34 -87 -34
-97 0 -21 -34 -35 -67 -28 -13 2 -17 11 -15 28 5 42 64 181 109 258 43 73 50
92 35 92 -10 0 -32 -45 -32 -64 0 -8 -6 -16 -14 -19 -8 -3 -24 -25 -35 -49
-11 -24 -29 -54 -41 -68 -11 -14 -33 -63 -49 -109 -28 -83 -41 -101 -73 -101
-14 0 -18 8 -18 35 0 29 -5 37 -27 46 -20 7 -39 7 -64 0 -37 -11 -49 -30 -49
-79 0 -17 -9 -27 -35 -38 -19 -7 -44 -14 -55 -14 -22 0 -22 -2 2 95 5 22 27
93 49 159 22 65 38 121 35 123 -12 12 -83 -156 -121 -289 -30 -102 -46 -128
-82 -128 -29 0 -30 20 -4 132 24 103 87 264 141 366 131 242 279 444 485 660
141 148 350 305 521 391 154 77 393 160 604 210 118 27 124 29 133 30 5 0 22
-12 38 -28z m941 -52 c29 -6 63 -20 75 -31 44 -41 58 -190 23 -265 -10 -24
-25 -43 -32 -43 -24 0 -175 66 -220 97 -31 20 -44 37 -46 57 -4 30 40 151 65
179 19 20 59 22 135 6z m368 -54 c40 -20 64 -102 62 -204 -1 -58 -7 -91 -18
-109 -16 -24 -19 -24 -93 -18 -69 7 -147 20 -178 31 -9 3 -8 17 3 57 16 60 18
178 5 225 -5 17 -7 34 -3 37 10 10 196 -6 222 -19z m508 6 c28 -15 26 -31 -19
-134 -17 -38 -37 -98 -44 -134 -15 -71 -20 -77 -78 -95 -29 -9 -60 -9 -135 2
-53 7 -102 17 -109 22 -8 7 -11 29 -8 65 3 31 0 85 -7 122 -6 36 -12 84 -12
106 l-1 39 55 13 c73 16 326 12 358 -6z m164 -110 c48 -44 131 -173 118 -184
-3 -2 -71 -7 -152 -10 -121 -5 -148 -4 -148 7 0 22 40 147 62 194 27 57 52 56
120 -7z m-827 -261 c84 -21 213 -40 276 -40 48 0 70 -4 80 -16 10 -13 10 -17
-2 -25 -8 -5 -23 -7 -34 -3 -11 3 -67 12 -125 20 -105 14 -236 49 -246 65 -7
11 1 11 51 -1z m965 -15 c31 -27 60 -92 60 -136 0 -66 -90 -169 -196 -222 -37
-19 -69 -13 -138 28 -59 35 -107 90 -153 181 -32 63 -35 74 -23 89 43 51 176
85 326 82 86 -2 105 -5 124 -22z m-1737 -67 c-3 -51 -66 -174 -126 -247 -56
-70 -152 -125 -205 -119 l-31 3 30 68 c33 79 56 161 64 232 7 65 28 82 108 89
34 3 76 8 92 10 64 7 70 4 68 -36z m281 13 c16 -3 31 -11 33 -17 5 -14 -61
-112 -134 -199 -51 -61 -69 -74 -136 -103 -50 -22 -89 -32 -112 -30 l-35 3 60
99 c33 55 72 135 87 178 l28 78 90 -1 c50 -1 103 -4 119 -8z m289 -23 c15 -6
27 -14 27 -19 0 -33 -102 -191 -153 -236 -28 -24 -46 -31 -98 -36 -69 -7 -131
2 -128 18 1 6 26 47 55 91 28 45 58 92 65 105 7 13 23 41 35 61 l24 37 72 -5
c40 -3 85 -10 101 -16z m-905 -49 c4 -62 -21 -168 -60 -252 -31 -66 -34 -70
-123 -123 -96 -57 -120 -65 -111 -36 32 111 40 158 40 269 1 67 5 125 9 130
14 13 190 62 217 60 22 -2 25 -7 28 -48z m1133 5 c16 -8 29 -19 29 -25 0 -20
-75 -139 -87 -139 -21 0 -15 20 17 60 36 45 37 54 8 74 -45 32 -64 22 -136
-76 -71 -96 -98 -125 -108 -115 -3 3 23 43 58 89 35 46 74 101 87 122 23 36
26 38 64 32 21 -4 52 -13 68 -22z m449 -5 c0 -24 88 -139 159 -207 46 -45 71
-76 65 -81 -20 -20 -114 -61 -174 -77 -47 -12 -69 -13 -86 -5 -42 19 -115 94
-140 144 -46 89 -46 93 -16 128 53 64 192 135 192 98z m-1892 -108 c6 -82 -16
-257 -38 -306 -29 -66 -144 -157 -154 -122 -2 6 -9 68 -16 136 -6 68 -20 151
-30 185 -18 58 -19 62 -2 78 28 27 216 108 226 98 5 -5 12 -36 14 -69z m1600
67 c-5 -15 -85 -78 -98 -78 -5 0 1 20 13 45 20 40 26 45 55 45 23 0 32 -4 30
-12z m974 -117 c98 -109 283 -384 360 -535 117 -231 216 -515 267 -766 82
-403 56 -927 -65 -1290 -39 -119 -154 -345 -175 -345 -23 0 -21 32 4 72 114
180 198 456 227 738 15 143 15 383 1 565 -15 185 -25 250 -61 385 -110 414
-314 812 -577 1123 -48 58 -70 112 -44 112 5 0 33 -27 63 -59z m-908 -73 c19
-40 51 -92 71 -115 l37 -43 -90 0 c-49 0 -109 -3 -134 -6 -44 -6 -46 -5 -68
31 -25 41 -37 114 -23 140 12 20 107 62 145 64 24 1 31 -7 62 -71z m-1944 -8
c5 -19 15 -94 22 -167 9 -106 9 -141 -1 -175 -22 -72 -91 -158 -128 -158 -6 0
-16 25 -23 58 -16 86 -66 242 -94 295 -14 26 -23 53 -20 60 5 15 31 35 139
110 78 53 84 52 105 -23z m2752 48 c24 -20 68 -91 68 -110 0 -35 -152 -121
-316 -177 -100 -34 -157 -39 -208 -17 -51 21 -89 86 -50 86 9 0 57 14 107 30
92 31 216 99 297 164 47 38 76 44 102 24z m-1057 -129 c15 -44 25 -82 24 -84
-8 -6 -194 -35 -230 -35 -39 0 -51 16 -62 85 -9 56 2 67 99 91 144 35 138 37
169 -57z m-325 1 c22 -44 47 -120 42 -124 -3 -3 -46 -6 -95 -6 -105 0 -116 8
-117 81 l0 45 53 11 c69 14 108 11 117 -7z m-243 -15 c11 -8 24 -27 27 -42 4
-16 9 -36 12 -45 4 -14 -1 -18 -24 -18 -69 0 -142 23 -182 57 -22 19 -40 38
-40 43 0 22 177 26 207 5z m-287 -48 c58 -64 129 -101 232 -121 135 -28 393
-17 668 26 79 13 185 22 255 22 119 1 121 1 165 -30 25 -17 70 -47 100 -65 30
-18 78 -55 105 -80 28 -26 79 -65 115 -87 52 -31 68 -46 77 -76 7 -20 29 -53
48 -73 26 -26 32 -39 23 -44 -7 -3 -83 -23 -168 -44 -416 -100 -671 -216
-1143 -518 -70 -44 -80 -48 -95 -35 -9 8 -55 37 -102 65 -295 173 -359 202
-640 293 -284 91 -308 97 -490 125 -91 14 -173 28 -182 31 -15 4 -12 14 19 77
37 74 69 117 87 117 23 0 79 49 114 99 29 42 62 70 150 127 62 41 119 74 127
74 18 0 141 64 181 95 18 14 45 25 61 26 15 0 66 11 113 24 122 33 124 33 180
-28z m2077 -31 c18 -32 33 -62 33 -67 0 -12 -135 -106 -201 -140 -32 -15 -87
-36 -123 -45 -62 -15 -69 -15 -111 0 -38 15 -115 79 -115 97 0 3 57 24 128 47
119 39 223 91 297 149 17 13 37 22 45 20 8 -1 29 -28 47 -61z m-3178 -24 c44
-88 82 -219 88 -302 4 -64 1 -80 -17 -108 -28 -45 -47 -39 -95 34 -42 64 -85
118 -154 194 -22 25 -41 48 -41 52 0 11 139 177 158 187 23 13 28 8 61 -57z
m3310 -176 l44 -87 -20 -27 c-42 -56 -279 -158 -349 -150 -23 2 -38 17 -76 73
-26 39 -44 73 -40 76 4 4 25 12 47 19 60 19 119 51 230 124 54 37 104 65 110
63 5 -2 30 -43 54 -91z m-3465 -117 c84 -91 156 -259 111 -259 -8 0 -15 8 -15
19 0 41 -80 178 -131 226 l-52 49 -26 -32 c-14 -17 -36 -49 -49 -71 l-22 -40
84 -56 c46 -31 92 -65 101 -75 17 -19 17 -20 -4 -20 -28 0 -45 9 -148 77 -46
29 -83 58 -83 64 0 11 70 135 102 182 19 27 20 27 50 10 16 -10 53 -43 82 -74z
m3595 -115 c46 -126 46 -123 -56 -172 -135 -63 -210 -76 -283 -51 -25 9 -38
24 -61 73 -16 33 -25 63 -21 67 4 3 39 16 77 28 66 21 205 91 250 125 44 34
60 22 94 -70z m-3779 -124 c22 -11 40 -23 40 -25 0 -4 -93 -1 -158 5 -1 0 4
13 13 30 17 33 23 32 105 -10z m3309 -56 c12 -15 21 -30 21 -34 0 -3 -60 -19
-132 -34 -243 -50 -501 -131 -626 -195 -84 -42 -352 -171 -357 -171 -2 0 -44
-23 -92 -52 -85 -50 -167 -108 -257 -184 -45 -38 -142 -107 -236 -170 -53 -35
-670 -649 -670 -666 0 -5 -17 -28 -39 -51 -21 -23 -61 -69 -89 -102 -27 -33
-66 -76 -87 -95 -20 -19 -65 -76 -100 -126 -80 -114 -92 -125 -111 -99 -8 10
-14 28 -14 38 0 23 161 251 267 379 108 130 503 524 673 670 225 195 438 359
578 446 159 99 527 287 646 330 134 49 488 134 588 141 9 0 26 -11 37 -25z
m576 -87 c27 -77 28 -88 15 -101 -26 -25 -181 -67 -272 -73 -110 -8 -128 2
-156 87 -24 69 -26 66 59 73 34 3 103 25 180 55 68 28 128 49 134 48 5 -1 23
-41 40 -89z m-3290 13 c77 -12 167 -27 200 -36 127 -31 521 -167 599 -206 98
-49 274 -150 335 -191 l44 -30 -24 -19 c-47 -37 -155 -98 -184 -103 -26 -5
-32 -2 -47 24 -22 40 -36 39 -79 -5 l-34 -35 31 -28 c17 -16 38 -31 45 -34 10
-4 -9 -27 -56 -72 -110 -104 -108 -103 -150 -66 -50 43 -115 75 -299 143 -245
91 -362 119 -538 125 -415 16 -812 -67 -1413 -296 -443 -169 -706 -391 -914
-771 -226 -412 -279 -641 -268 -1148 7 -343 40 -545 133 -822 113 -337 288
-662 443 -823 68 -71 302 -272 401 -344 74 -54 236 -149 342 -202 l87 -42 6
-57 c4 -31 8 -61 9 -67 2 -5 -5 -27 -15 -47 -33 -65 -23 -102 30 -110 21 -3
26 -13 42 -78 10 -41 18 -86 19 -99 0 -22 -3 -23 -47 -19 -117 12 -496 177
-678 294 -122 78 -302 212 -405 300 -248 212 -393 399 -592 769 -125 232 -230
514 -302 816 -54 223 -61 294 -61 599 0 324 13 416 100 720 88 307 167 493
301 706 161 257 450 543 749 744 222 148 381 223 720 337 493 166 621 189
1085 192 199 1 271 -3 385 -19z m2775 -36 c14 -35 8 -41 -56 -60 l-55 -16 6
-41 c9 -56 27 -92 45 -91 8 0 43 4 78 8 l62 7 0 -30 c0 -28 -3 -30 -57 -40
-220 -42 -404 -85 -447 -107 -16 -8 -36 -14 -45 -14 -28 0 -188 -83 -169 -88
10 -2 32 4 50 12 17 9 36 16 41 16 6 0 29 9 51 19 23 11 102 35 176 55 228 60
430 84 430 52 0 -15 -21 -26 -52 -26 -38 0 -395 -79 -470 -104 -210 -70 -291
-112 -603 -309 -275 -174 -385 -266 -759 -635 -203 -200 -284 -289 -385 -419
-35 -45 -69 -84 -76 -86 -33 -13 -305 -373 -305 -404 0 -23 -33 -11 -49 18
-14 25 -11 29 53 120 36 52 80 111 96 131 17 20 30 42 30 49 0 6 19 33 42 58
250 276 610 644 723 739 150 126 195 172 165 172 -56 0 -757 -692 -893 -883
-23 -32 -72 -92 -108 -135 -36 -42 -85 -103 -108 -136 l-43 -58 -21 21 -21 21
22 39 c29 52 28 62 -15 104 -38 38 -61 45 -81 25 -15 -15 -29 -2 -34 32 -4 36
135 259 226 361 23 25 91 101 151 169 61 68 136 151 168 184 31 33 57 65 57
70 0 15 62 76 77 76 16 0 165 154 175 181 4 10 13 19 19 19 10 0 81 59 190
158 21 18 88 72 151 119 242 184 254 193 403 279 38 22 69 47 67 54 -2 8 3 10
14 6 11 -4 61 15 133 51 64 32 130 63 146 70 17 7 52 22 80 34 142 63 486 153
655 172 19 2 41 5 48 5 7 1 17 -10 22 -24z m1388 -38 c175 -72 262 -120 407
-224 163 -116 208 -153 363 -299 277 -261 496 -544 620 -803 186 -386 293
-704 336 -1000 54 -373 44 -698 -30 -995 -143 -571 -370 -1013 -678 -1321
-242 -241 -713 -554 -993 -659 -83 -32 -356 -112 -403 -119 -19 -3 -78 -12
-130 -21 -304 -49 -660 -45 -940 11 -261 51 -644 195 -925 347 -138 74 -147
82 -113 98 22 10 37 6 112 -30 48 -23 91 -41 96 -41 24 0 6 22 -37 45 -62 32
-117 80 -109 94 9 13 46 14 79 2 33 -13 41 -5 85 74 36 66 39 70 72 69 19 -1
76 -19 126 -42 50 -22 108 -44 130 -48 21 -3 77 -22 124 -40 110 -43 310 -100
380 -107 30 -4 84 -11 120 -17 36 -5 120 -13 188 -16 109 -6 122 -5 122 10 0
14 -15 16 -114 16 -63 0 -150 7 -193 15 -43 8 -115 20 -160 25 -139 18 -324
77 -553 180 -58 25 -116 51 -130 57 l-24 10 26 17 c25 16 28 16 104 -19 44
-20 124 -52 179 -72 55 -19 138 -49 185 -65 157 -56 241 -68 485 -68 317 0
413 10 755 75 47 9 104 21 127 26 47 9 221 83 378 160 150 73 394 276 532 440
107 129 157 201 232 333 194 343 245 476 329 866 25 116 27 141 26 350 -1 205
-3 237 -28 352 -33 156 -57 247 -84 313 -11 28 -40 102 -63 164 -48 130 -86
205 -208 411 -47 80 -96 165 -107 190 -28 60 -205 280 -285 355 -36 33 -102
87 -148 120 -46 33 -104 75 -129 93 -24 19 -73 50 -108 69 -71 39 -86 57 -73
90 8 21 11 20 124 -41 63 -34 150 -89 193 -121 90 -70 251 -229 375 -373 49
-56 92 -102 98 -102 11 0 -40 74 -120 175 -102 129 -376 366 -531 460 -136 82
-157 99 -162 132 -3 16 -12 62 -21 103 -21 101 -30 217 -17 225 13 8 87 -25
142 -63 24 -16 61 -38 83 -50 22 -11 72 -45 110 -76 70 -56 105 -69 105 -41 0
30 -323 228 -419 256 -32 9 -50 23 -68 50 -26 39 -23 65 6 56 9 -3 76 -30 149
-61z m-819 -104 c5 -10 15 -49 22 -85 11 -60 11 -69 -5 -86 -33 -36 -121 -56
-248 -56 -104 0 -120 2 -137 20 -25 25 -54 122 -40 131 6 3 60 13 120 20 65 9
141 27 187 44 93 35 89 34 101 12z m59 -225 c6 -7 14 -46 18 -88 8 -88 5 -91
-82 -114 -152 -40 -311 -37 -334 5 -12 22 -13 110 -2 126 4 7 52 13 117 16 93
4 122 10 185 35 90 37 85 36 98 20z m-498 -240 c-6 -40 -28 -112 -49 -162
l-39 -90 -73 -42 c-85 -49 -115 -55 -105 -20 15 54 28 155 39 287 l12 144 30
7 c17 5 66 12 110 16 l80 8 3 -38 c2 -22 -2 -71 -8 -110z m-277 -27 c-2 -228
-40 -327 -145 -381 -66 -34 -64 -38 -72 164 -4 100 -11 206 -15 235 -6 45 -5
55 10 62 35 19 155 49 189 47 l35 -2 -2 -125z m-2833 29 c122 -11 293 -45 425
-86 44 -13 114 -33 155 -44 138 -38 284 -119 265 -148 -9 -15 -25 -14 -25 2 0
6 -35 23 -78 36 -42 13 -104 36 -138 51 -64 29 -238 76 -409 110 -365 75 -796
37 -1220 -105 -203 -68 -462 -175 -540 -222 -140 -85 -343 -251 -419 -342 -54
-65 -187 -266 -239 -362 -136 -252 -209 -604 -210 -1019 0 -239 26 -415 105
-695 40 -143 74 -228 160 -400 156 -310 355 -565 571 -730 79 -60 240 -161
344 -215 56 -30 100 -57 98 -61 -8 -12 -86 10 -160 45 -260 123 -562 403 -761
706 -163 248 -322 641 -368 907 -66 381 -41 885 60 1198 66 204 282 569 427
722 81 85 233 203 358 278 82 49 360 167 529 225 169 58 435 117 670 149 93
12 267 13 400 0z m2542 -16 c18 -41 17 -398 0 -439 -10 -24 -30 -40 -88 -68
-41 -20 -75 -36 -77 -36 -1 0 -2 55 -3 123 -1 68 -9 166 -19 222 -32 178 -34
160 22 181 26 10 59 24 73 31 43 22 79 17 92 -14z m1088 -72 l0 -88 -61 -18
c-89 -25 -156 -29 -238 -15 -55 9 -75 17 -85 33 -18 29 -27 83 -20 112 5 22
10 23 142 27 91 4 151 10 177 21 22 9 50 16 63 16 21 1 22 -2 22 -88z m-1341
-53 c21 -78 30 -146 37 -267 6 -110 5 -122 -15 -164 -12 -25 -43 -64 -69 -87
-59 -53 -63 -49 -86 112 -10 67 -29 174 -43 236 -14 62 -22 120 -19 128 6 16
141 84 167 84 11 0 20 -14 28 -42z m-2519 -11 c0 -50 -33 -173 -60 -228 -30
-57 -73 -102 -123 -127 -52 -26 -103 -22 -92 7 31 79 58 201 64 281 l6 95 30
6 c17 4 63 7 103 8 l72 1 0 -43z m244 34 c10 -16 -23 -181 -47 -235 -48 -105
-136 -175 -220 -176 -46 0 -57 20 -28 56 32 41 80 177 92 262 6 42 13 83 15
90 4 14 179 18 188 3z m174 -21 c42 -12 85 -23 96 -26 16 -5 18 -13 12 -50 -9
-71 -69 -188 -126 -248 -42 -45 -61 -57 -101 -65 -68 -15 -111 -14 -135 3 -19
14 -19 15 3 43 55 68 123 237 123 303 0 67 11 70 128 40z m-667 -7 c7 -103
-34 -266 -86 -345 -29 -44 -75 -71 -113 -66 -35 4 -39 35 -17 131 10 40 19
117 21 172 3 55 8 103 12 107 8 7 59 14 135 16 38 2 47 -1 48 -15z m3629 -42
c-7 -40 -44 -101 -62 -101 -11 0 -12 -2 27 78 16 34 32 62 36 62 3 0 3 -17 -1
-39z m-3863 -8 c6 -27 -25 -238 -47 -316 -6 -20 -20 -45 -31 -56 -22 -21 -96
-47 -105 -38 -4 4 -1 27 6 52 12 44 10 137 -6 285 l-6 55 63 22 c92 30 117 30
126 -4z m5092 9 l22 -17 -29 -28 -29 -28 0 46 c0 50 5 53 36 27z m-3926 -22
c87 -27 94 -37 65 -94 -38 -75 -156 -202 -215 -232 -46 -23 -56 -25 -88 -14
-19 6 -35 15 -35 19 0 5 17 28 38 52 53 60 86 122 111 202 31 102 24 98 124
67z m-1397 -82 c13 -45 18 -90 17 -156 -2 -88 -3 -95 -35 -140 -42 -58 -89
-88 -116 -73 -17 9 -19 23 -21 133 0 67 -6 148 -12 181 -7 34 -8 62 -3 66 10
10 123 50 140 51 6 0 20 -28 30 -62z m2983 33 c38 -71 86 -356 75 -445 -6 -44
-13 -57 -53 -95 -54 -50 -99 -77 -112 -64 -5 5 -14 47 -20 94 -11 93 -47 236
-95 379 -6 19 31 55 111 109 68 46 80 49 94 22z m1601 -65 c0 -75 -3 -88 -24
-113 -24 -28 -25 -28 -148 -28 -118 0 -125 1 -176 29 -29 17 -58 38 -63 48 -6
10 -9 44 -7 76 3 54 4 57 28 54 57 -7 258 -3 300 6 93 20 90 23 90 -72z m969
-9 l55 -40 -57 -53 c-35 -33 -77 -60 -112 -73 -66 -25 -155 -29 -155 -7 0 11
9 13 33 9 26 -4 53 4 119 35 97 47 117 64 98 87 -16 19 -113 75 -131 75 -8 0
-30 -13 -49 -28 -19 -16 -45 -34 -57 -41 -40 -21 -27 13 15 43 21 14 51 40 67
56 l29 30 45 -26 c25 -15 70 -45 100 -67z m-3928 36 c38 -21 69 -40 69 -43 0
-14 -209 -228 -243 -249 -43 -26 -86 -24 -119 6 -17 15 -15 19 45 87 75 83
153 188 162 216 4 11 9 20 12 20 3 0 37 -17 74 -37z m-1833 -63 c8 -35 11
-102 9 -184 -3 -127 -3 -129 -31 -153 -16 -13 -38 -23 -49 -21 -17 2 -23 15
-33 73 -14 83 -45 170 -80 221 -14 20 -23 42 -20 49 6 16 145 75 171 72 15 -1
23 -15 33 -57z m4291 -9 c11 -7 11 -18 1 -62 -7 -30 -16 -85 -20 -124 -5 -38
-16 -101 -24 -140 -8 -38 -15 -96 -16 -127 0 -62 -13 -108 -31 -108 -18 0
-409 383 -409 401 0 10 15 23 38 32 20 8 54 29 76 46 21 17 55 33 75 37 20 3
63 13 96 21 121 31 190 39 214 24z m-4518 -78 c35 -56 78 -186 86 -259 5 -50
4 -53 -38 -99 -64 -70 -119 -92 -119 -49 0 26 -62 166 -103 233 -60 98 -61
106 -27 135 16 13 51 32 77 42 26 9 55 23 63 31 22 20 28 17 61 -34z m3188
-12 c32 -75 59 -201 72 -336 12 -120 12 -123 -11 -163 -28 -49 -138 -141 -144
-120 -2 7 -7 29 -10 48 -13 91 -48 226 -86 334 -35 97 -40 123 -31 142 10 22
163 144 181 144 4 0 17 -22 29 -49z m2957 -13 c42 -44 104 -127 104 -139 0
-29 -217 -99 -307 -99 -54 0 -176 26 -213 45 -53 27 -39 49 50 79 121 41 200
79 255 124 55 44 61 44 111 -10z m-1406 -35 c45 -14 163 -13 234 3 l29 7 -5
-78 c-7 -103 -20 -115 -125 -115 -117 0 -258 44 -282 88 -17 33 -25 120 -11
137 10 12 18 12 63 -6 29 -12 72 -27 97 -36z m-4997 -73 c14 -16 43 -62 65
-102 89 -163 94 -281 13 -323 -32 -16 -43 -10 -56 35 -16 53 -87 178 -135 235
-27 33 -50 66 -50 73 0 21 106 112 132 112 3 0 18 -13 31 -30z m1540 8 c38
-20 100 -26 160 -16 47 8 66 7 100 -6 23 -8 69 -18 102 -22 33 -3 69 -12 81
-19 11 -7 39 -19 62 -25 l41 -13 -80 -87 c-91 -99 -182 -215 -246 -312 -24
-37 -48 -70 -54 -73 -23 -15 -57 25 -77 92 -12 37 -41 101 -65 142 -39 64 -45
83 -51 152 -5 56 -15 95 -35 134 -15 30 -26 57 -23 60 10 9 63 5 85 -7z m-193
-13 c63 -32 126 -166 86 -181 -8 -3 -50 10 -93 29 -102 45 -177 66 -265 75
-79 8 -101 27 -43 38 51 9 182 -25 290 -77 48 -22 89 -39 91 -36 11 10 -47
106 -76 127 -16 12 -30 26 -30 31 0 12 6 11 40 -6z m2918 -69 c496 -468 648
-625 820 -844 222 -284 328 -460 445 -738 216 -513 261 -647 321 -949 27 -132
46 -282 39 -300 -2 -5 -24 -18 -49 -29 -25 -10 -69 -38 -99 -62 -29 -24 -58
-44 -64 -44 -5 0 -11 15 -13 33 -2 25 -8 33 -26 35 -46 7 -75 -47 -42 -76 19
-15 16 -18 -63 -49 -96 -38 -100 -36 -111 55 -23 193 -187 747 -301 1012 -97
226 -306 572 -505 835 -208 275 -448 520 -847 865 -18 16 -33 33 -33 38 0 10
88 80 127 101 13 6 34 9 47 5 21 -5 29 0 49 33 13 21 33 45 43 54 27 24 156
88 177 89 9 0 48 -29 85 -64z m-1072 19 c20 -31 90 -286 104 -383 15 -99 6
-145 -36 -188 -49 -48 -83 -69 -95 -57 -5 5 -18 46 -29 91 -20 84 -97 282
-131 338 -27 45 -24 65 19 106 47 46 135 117 144 118 4 0 15 -11 24 -25z
m-2276 -57 c31 -123 83 -296 106 -356 34 -87 217 -453 287 -573 190 -329 392
-605 601 -819 375 -385 589 -599 730 -728 86 -79 154 -148 151 -152 -16 -26
-63 4 -176 111 -67 63 -126 116 -132 118 -7 2 -40 31 -75 64 -34 34 -72 68
-85 76 -12 9 -40 33 -62 54 -44 43 -41 39 -144 149 -73 77 -91 90 -91 66 0
-13 198 -214 305 -309 138 -123 328 -316 341 -347 20 -45 11 -54 -34 -32 -34
17 -38 17 -55 2 -10 -9 -26 -34 -37 -56 -29 -62 -56 -89 -82 -82 -28 7 -151
104 -181 143 -12 15 -38 41 -57 58 -19 16 -70 63 -115 104 -44 40 -97 85 -117
99 -21 13 -38 29 -38 34 0 10 -327 354 -507 535 -57 56 -103 105 -103 109 0
17 -127 161 -134 153 -12 -12 166 -236 312 -392 188 -202 806 -801 890 -863
l42 -31 -25 -17 c-15 -10 -32 -16 -40 -14 -51 12 -1010 959 -1167 1153 -31 39
-88 106 -127 150 -210 239 -549 921 -652 1310 -37 141 -37 168 -2 184 14 7 29
8 33 4 4 -4 15 -49 24 -100 26 -144 150 -477 216 -578 14 -22 32 -53 38 -69
10 -22 16 -26 25 -17 11 11 0 38 -68 161 -83 151 -163 405 -172 545 -6 103 -3
109 65 118 l44 5 -21 -22 c-25 -27 -29 -97 -6 -116 18 -15 88 -8 112 11 12 10
14 25 10 67 -3 29 -11 59 -17 67 -8 10 -8 15 2 22 18 11 81 33 85 29 2 -2 12
-45 22 -97 48 -241 96 -372 236 -647 73 -145 105 -193 105 -160 0 18 -56 140
-97 213 -54 97 -168 387 -184 469 -19 98 -39 211 -39 224 0 6 11 12 25 12 20
0 26 -7 35 -42z m3988 -7 c109 -41 111 -42 210 -43 l90 0 6 -37 c3 -20 0 -59
-7 -86 -12 -48 -14 -50 -62 -64 -41 -12 -68 -12 -152 -3 -164 18 -203 50 -203
163 0 77 6 99 26 99 8 0 49 -13 92 -29z m1711 -63 c34 -51 61 -100 61 -109 0
-33 -212 -64 -325 -48 -126 18 -165 34 -232 97 -63 57 -58 73 20 65 85 -7 192
11 295 51 48 18 94 34 103 35 11 1 40 -34 78 -91z m-5443 33 c181 -53 239 -87
311 -184 40 -54 73 -131 61 -142 -2 -3 -49 7 -104 21 -64 17 -139 28 -212 31
-132 7 -125 1 -172 136 -29 83 -38 146 -23 160 11 12 38 8 139 -22z m-1294
-70 c68 -99 115 -225 104 -283 -6 -35 -40 -88 -55 -88 -4 0 -30 35 -56 78 -56
88 -122 162 -171 193 -19 11 -34 27 -34 36 0 37 105 155 134 151 11 -2 44 -38
78 -87z m6112 46 c10 -7 30 -38 44 -68 18 -36 42 -65 75 -89 39 -29 52 -47 73
-103 17 -43 43 -86 73 -120 27 -28 54 -70 61 -92 19 -61 49 -117 80 -150 21
-23 29 -44 34 -89 7 -67 31 -126 75 -189 25 -36 29 -51 30 -111 0 -51 6 -77
22 -105 19 -31 21 -46 15 -108 -4 -53 -1 -85 11 -122 l16 -51 -29 -53 c-27
-49 -29 -59 -30 -177 -1 -86 -6 -140 -18 -174 -9 -27 -16 -67 -16 -89 0 -29
-10 -55 -37 -95 -41 -63 -62 -114 -63 -155 0 -18 -12 -39 -34 -60 -43 -42 -68
-79 -95 -148 -17 -41 -37 -67 -77 -100 -30 -24 -75 -72 -101 -107 -28 -38 -62
-71 -86 -83 -21 -11 -40 -19 -42 -17 -1 2 -10 50 -19 108 -60 368 -186 750
-390 1182 -25 54 -46 109 -46 122 0 14 16 53 36 87 143 243 299 692 364 1042
11 60 22 112 25 118 9 13 28 11 49 -4z m-2993 -194 c65 -157 90 -245 92 -323
2 -69 -1 -79 -32 -130 -40 -66 -70 -100 -88 -100 -7 0 -13 7 -13 16 0 35 -62
197 -120 314 -94 191 -95 161 7 257 86 81 88 83 105 63 9 -11 31 -55 49 -97z
m-2620 -60 c55 -235 114 -387 267 -683 106 -206 143 -271 254 -439 l88 -134
-29 -46 c-16 -25 -64 -113 -105 -196 -132 -261 -242 -619 -296 -960 -29 -182
-20 -170 -94 -125 -35 21 -80 45 -100 54 -20 8 -36 21 -36 29 0 8 -27 32 -60
53 -35 23 -68 54 -80 77 -12 20 -42 54 -66 75 -25 20 -53 56 -63 78 -11 23
-34 59 -53 80 -24 26 -37 53 -42 83 -9 58 -28 93 -78 141 -37 35 -42 45 -44
89 -1 32 -11 64 -26 88 -18 30 -23 53 -24 109 -1 48 -7 79 -18 96 -14 22 -15
32 -5 72 15 61 6 126 -28 187 -24 44 -25 53 -15 88 17 53 15 94 -5 136 -16 34
-16 38 1 89 14 42 17 68 11 122 -6 62 -4 75 20 127 23 49 26 67 21 108 -6 40
-3 54 14 77 12 15 28 54 36 87 9 32 26 72 39 89 12 17 32 50 44 74 12 23 40
59 63 80 23 20 54 56 69 80 15 24 47 56 71 71 25 16 54 40 66 55 25 33 142
125 159 125 6 1 25 -55 44 -136z m-716 71 c98 -65 172 -161 195 -256 10 -39 9
-51 -5 -81 -9 -19 -25 -43 -35 -52 -18 -16 -21 -14 -67 56 -51 77 -116 135
-195 172 -27 12 -48 25 -48 29 0 15 95 158 105 158 6 0 28 -12 50 -26z m5297
-44 c47 -7 110 -11 141 -8 32 3 57 2 57 -2 0 -15 -39 -118 -59 -158 -20 -39
-24 -42 -64 -42 -78 0 -109 16 -200 103 -89 86 -98 103 -76 150 l10 23 54 -27
c32 -16 87 -32 137 -39z m-1213 -24 c47 -46 124 -116 171 -155 224 -190 372
-343 518 -536 37 -49 95 -124 127 -165 82 -103 321 -472 388 -600 94 -177 205
-455 294 -733 55 -173 120 -428 124 -486 4 -56 -16 -66 -25 -14 -12 64 -75
312 -108 418 -68 224 -209 581 -298 755 -75 147 -263 445 -378 600 -259 347
-398 500 -632 695 -52 44 -129 109 -170 145 -41 36 -90 78 -109 93 -32 27 -33
28 -16 47 10 11 20 20 23 20 2 0 43 -38 91 -84z m2992 22 c12 -24 44 -75 70
-115 l49 -72 -33 -10 c-17 -5 -74 -15 -126 -22 -102 -13 -176 -5 -277 33 -57
21 -141 101 -171 162 -22 46 -11 58 42 46 55 -13 192 -11 300 4 50 7 98 14
107 15 11 0 25 -14 39 -41z m-3108 -70 c20 -18 37 -38 37 -43 0 -17 -80 -88
-148 -133 -70 -46 -126 -65 -175 -60 -27 3 -32 7 -30 28 2 15 20 40 45 62 170
149 205 177 218 178 8 0 32 -15 53 -32z m-2258 -13 c123 -22 224 -69 265 -127
18 -24 41 -60 51 -80 22 -43 21 -44 -62 -27 -30 5 -125 10 -212 10 l-157 0
-55 109 c-30 60 -55 114 -55 120 0 15 122 12 225 -5z m1405 -106 c65 -128 114
-258 126 -334 9 -62 -10 -125 -53 -175 -38 -45 -55 -43 -68 8 -9 38 -93 228
-125 282 -15 25 -43 71 -63 102 l-37 56 38 50 c49 65 105 130 114 131 3 1 34
-54 68 -120z m-3235 32 c73 -43 130 -95 178 -165 36 -52 42 -68 42 -113 0 -36
-5 -58 -17 -69 -16 -16 -21 -12 -93 59 -60 60 -96 85 -162 117 -53 25 -83 45
-80 53 40 100 62 147 71 147 6 0 34 -13 61 -29z m4216 -19 c52 -35 119 -95
119 -106 0 -19 -92 -83 -176 -123 -69 -33 -89 -38 -154 -38 -62 0 -83 4 -120
25 -61 35 -63 54 -5 70 54 15 144 71 228 141 32 27 64 49 70 49 7 0 24 -8 38
-18z m2738 -93 c59 -11 186 -9 332 7 l56 6 33 -68 c18 -38 34 -85 34 -104 1
-33 -1 -36 -44 -47 -161 -42 -369 15 -457 125 -43 52 -59 110 -29 99 8 -3 42
-11 75 -18z m-3943 -87 c93 -112 194 -328 194 -415 0 -51 -8 -72 -46 -124 -16
-21 -30 -30 -40 -26 -8 3 -37 51 -64 107 -26 56 -87 155 -134 220 -47 64 -86
120 -86 122 0 17 120 154 134 154 6 0 25 -17 42 -38z m1428 -10 c17 -19 37
-46 45 -60 13 -24 11 -27 -20 -54 -81 -67 -221 -128 -295 -128 -18 0 -46 5
-61 12 -34 14 -93 67 -93 84 0 6 20 15 44 18 53 8 156 58 256 124 41 28 79 47
84 44 5 -3 23 -21 40 -40z m-4504 -10 c79 -44 158 -113 197 -169 31 -45 37
-63 37 -106 1 -35 -5 -62 -17 -81 l-18 -27 -38 34 c-44 40 -156 107 -247 148
-52 24 -64 34 -64 52 0 29 27 123 47 160 16 32 30 31 103 -11z m2183 5 c72
-31 216 -191 193 -215 -4 -3 -68 -6 -144 -7 -75 0 -165 -7 -200 -14 -77 -17
-75 -18 -156 116 -54 88 -65 121 -48 137 4 5 77 6 162 4 114 -3 165 -9 193
-21z m1650 -40 c44 -44 74 -67 104 -75 28 -8 49 -23 64 -45 37 -54 82 -98 116
-112 17 -7 43 -31 56 -52 30 -47 84 -96 137 -123 23 -12 47 -34 56 -53 9 -17
38 -58 65 -89 27 -31 49 -60 49 -63 0 -4 -13 -23 -30 -41 -16 -19 -33 -47 -36
-62 -11 -44 -40 -95 -69 -122 -44 -40 -85 -101 -85 -126 0 -15 -24 -50 -64
-94 -43 -48 -68 -85 -76 -115 -9 -32 -25 -55 -62 -85 -27 -23 -58 -61 -69 -83
-12 -24 -42 -58 -70 -80 -28 -21 -62 -58 -77 -83 -15 -24 -34 -44 -43 -44 -9
0 -36 26 -61 58 -26 34 -75 78 -121 109 -43 29 -93 73 -113 99 -46 60 -81 92
-122 110 -18 8 -48 36 -67 62 -19 26 -60 65 -92 87 -75 52 -122 101 -153 159
l-25 47 42 37 c25 22 56 65 77 107 20 40 49 81 69 97 19 15 51 60 75 105 28
54 56 92 90 120 31 27 62 66 86 112 20 39 53 83 72 99 19 15 56 58 81 96 43
64 91 106 121 106 8 0 42 -28 75 -63z m905 -191 l27 -39 -35 -29 c-73 -63
-226 -118 -327 -118 -49 0 -55 3 -112 56 -72 66 -77 84 -23 84 47 1 165 47
228 90 27 18 67 44 89 56 l40 23 43 -42 c23 -23 55 -59 70 -81z m2409 87 c83
-23 119 -27 233 -27 l134 -1 28 -70 c35 -91 45 -154 27 -166 -45 -29 -259 9
-361 63 -72 38 -151 122 -171 183 -19 55 -22 54 110 18z m-4219 -91 c77 -100
154 -235 177 -308 15 -49 16 -66 7 -118 -10 -52 -43 -110 -55 -95 -2 2 -30 43
-61 91 -31 48 -104 137 -162 197 -57 60 -104 111 -104 114 0 3 19 38 41 79 41
73 76 118 90 118 5 0 35 -35 67 -78z m-2955 -54 c173 -91 258 -191 228 -271
-6 -15 -12 -27 -15 -27 -2 0 -27 16 -56 35 -64 43 -155 72 -255 81 -87 8 -83
-2 -58 137 15 82 20 97 37 97 10 0 64 -24 119 -52z m2387 6 c29 -9 70 -27 91
-41 47 -31 150 -153 147 -173 -3 -12 -26 -16 -108 -21 -58 -3 -151 -14 -207
-24 -56 -10 -108 -15 -117 -12 -9 4 -45 51 -80 106 -35 54 -69 102 -75 105
-18 12 -12 44 9 51 79 25 269 30 340 9z m2520 -118 c42 -50 68 -89 65 -98 -21
-53 -359 -135 -417 -102 -26 15 -88 95 -88 113 0 12 15 20 56 29 76 18 202 72
255 110 24 17 47 31 51 32 4 0 39 -38 78 -84z m2334 -1 c95 -43 168 -62 273
-71 45 -4 86 -10 92 -14 11 -6 32 -97 46 -194 l7 -49 -58 8 c-131 16 -343 109
-390 170 -48 64 -85 185 -55 185 5 0 43 -16 85 -35z m-4408 -112 c99 -94 202
-247 190 -279 -10 -26 -23 -14 -69 64 -51 86 -157 214 -211 256 -20 15 -36 33
-36 41 0 22 55 -14 126 -82z m-2778 -38 c68 -31 147 -111 161 -161 14 -49 14
-101 1 -109 -6 -3 -38 7 -73 24 -69 33 -179 53 -272 49 l-60 -3 3 105 c2 58 6
108 9 113 2 4 43 7 91 7 71 0 97 -5 140 -25z m4994 -32 c42 -45 81 -111 75
-127 -15 -39 -124 -80 -256 -95 -122 -15 -145 -7 -216 72 -30 34 -55 67 -55
72 0 7 14 9 34 7 51 -6 190 25 281 62 44 19 87 34 96 35 8 0 27 -11 41 -26z
m-2431 -3 c75 -14 127 -44 178 -101 51 -57 47 -73 -21 -71 -66 3 -186 -16
-274 -43 -43 -14 -84 -25 -90 -25 -17 0 -174 182 -174 202 0 12 14 19 53 27
28 5 61 12 72 14 40 9 204 7 256 -3z m4615 -64 c121 -60 255 -111 383 -146
l43 -12 -4 -124 c-2 -68 -8 -128 -14 -134 -11 -11 -81 13 -163 54 -52 27 -172
121 -214 169 -40 46 -77 126 -77 170 0 41 4 43 46 23z m-2596 -160 c75 -78
130 -145 130 -161 0 -14 -87 8 -134 33 -66 36 -136 99 -136 124 0 29 34 82 56
88 1 0 39 -38 84 -84z m558 27 c6 -16 28 -53 47 -83 19 -30 35 -62 35 -71 0
-27 -110 -51 -251 -57 l-126 -4 -39 35 c-45 40 -79 93 -65 101 5 3 55 13 112
22 71 11 126 27 174 49 87 41 98 42 113 8z m-5163 -27 c72 -19 137 -50 162
-77 56 -63 89 -168 64 -208 -7 -11 -18 -10 -62 7 -80 30 -240 62 -308 62 -70
0 -69 -2 -78 121 -6 87 -5 89 18 98 35 14 147 13 204 -3z m2865 -17 c31 -9 63
-31 103 -70 31 -32 57 -63 57 -69 0 -8 -14 -9 -42 -5 -51 7 -244 -24 -336 -55
-35 -12 -71 -18 -80 -15 -24 7 -144 145 -139 159 4 13 77 39 173 60 78 18 195
15 264 -5z m4392 -115 c80 -77 103 -92 215 -146 93 -44 123 -63 119 -74 -3 -8
-13 -40 -21 -72 -29 -102 -57 -170 -72 -177 -37 -13 -248 144 -314 234 -39 52
-59 113 -59 175 0 49 25 146 37 146 3 0 46 -39 95 -86z m-2733 2 c63 -42 99
-59 156 -71 82 -18 106 -39 120 -102 5 -27 1 -42 -26 -83 -18 -27 -37 -50 -43
-50 -88 1 -242 56 -339 122 -65 44 -83 73 -73 114 8 29 95 124 113 124 6 0 47
-24 92 -54z m-2958 -68 c10 -13 18 -31 19 -41 0 -18 -33 -90 -53 -115 -9 -12
-55 -118 -123 -286 -15 -37 -21 -63 -15 -69 11 -11 18 5 88 183 50 127 111
240 131 240 13 0 132 -112 132 -125 0 -4 -11 0 -25 9 -30 20 -69 21 -84 2 -7
-8 -14 -30 -18 -49 -5 -30 -1 -37 28 -60 43 -32 82 -43 96 -25 6 7 16 30 22
51 7 20 16 37 21 37 5 0 19 -14 31 -31 l22 -31 -33 -67 c-18 -36 -43 -91 -55
-121 -13 -30 -39 -93 -59 -140 -20 -46 -36 -91 -36 -100 0 -9 -6 -24 -14 -35
-28 -40 -99 -290 -135 -475 -17 -87 -41 -374 -41 -494 0 -258 64 -610 147
-806 24 -58 75 -161 113 -230 37 -69 75 -142 84 -163 30 -72 144 -235 233
-331 131 -142 153 -171 153 -200 0 -31 -4 -32 -37 -6 -35 27 -69 25 -88 -4
-15 -23 -15 -27 0 -49 9 -14 29 -31 46 -37 27 -11 32 -10 54 10 27 25 29 23
38 -41 5 -33 58 -113 136 -205 82 -96 322 -186 536 -200 44 -2 125 -9 180 -15
99 -9 100 -10 130 -47 61 -77 187 -192 237 -218 39 -20 73 -28 129 -32 79 -5
164 15 453 104 151 47 169 45 125 -16 -18 -24 -21 -37 -15 -76 l6 -47 -36 6
c-19 3 -47 1 -62 -5 -15 -6 -76 -14 -137 -19 -60 -4 -162 -15 -225 -24 -203
-28 -322 7 -452 132 -54 53 -70 63 -84 55 -16 -9 -15 -12 9 -36 15 -15 27 -29
27 -31 0 -10 -74 -4 -148 11 -248 50 -572 219 -847 439 -149 120 -408 374
-527 519 -176 214 -261 362 -366 641 -190 504 -238 967 -148 1440 109 572 167
770 312 1067 71 144 90 178 101 178 3 0 13 -10 24 -22z m3770 -53 c17 -36 35
-67 40 -71 37 -22 -40 -64 -119 -64 -26 0 -107 9 -180 19 -120 16 -135 20
-162 46 -19 18 -30 39 -30 56 l0 27 127 7 c70 4 157 15 193 25 99 27 97 28
131 -45z m-2309 24 c29 -6 67 -18 83 -27 44 -22 136 -103 129 -113 -3 -5 -33
-9 -67 -9 -70 0 -175 -26 -289 -71 -47 -19 -87 -29 -100 -25 -27 6 -161 153
-155 170 5 16 87 45 187 66 101 22 142 24 212 9z m-2997 -65 c110 -23 170 -55
205 -110 34 -54 36 -66 16 -84 -12 -9 -36 -9 -110 1 -83 11 -105 10 -186 -5
-51 -10 -96 -14 -100 -10 -9 9 -40 162 -40 195 0 39 73 43 215 13z m4288 -43
c64 -44 155 -87 244 -116 130 -42 136 -54 64 -132 l-38 -42 -74 20 c-103 28
-199 70 -275 120 -80 52 -83 71 -19 134 24 25 47 45 50 45 4 0 25 -13 48 -29z
m557 -53 c0 -6 -11 -25 -23 -42 -13 -17 -47 -69 -76 -115 -103 -166 -312 -414
-537 -637 -118 -116 -241 -231 -275 -255 -34 -24 -89 -64 -122 -89 -214 -160
-562 -360 -790 -455 -246 -101 -595 -200 -784 -221 l-63 -7 0 31 c0 30 1 30
63 37 252 26 420 69 707 180 253 99 411 181 650 340 283 188 373 259 584 455
148 138 225 227 423 490 156 208 164 219 197 267 26 39 46 48 46 21z m2439
-172 c30 -23 77 -57 105 -77 34 -24 52 -44 53 -60 4 -37 -49 -183 -68 -187
-23 -4 -167 115 -218 181 -60 78 -90 157 -91 234 0 101 3 102 89 22 42 -40
100 -90 130 -113z m-2054 129 c39 0 95 3 124 5 l55 5 28 -80 c15 -44 28 -88
28 -97 0 -19 -41 -34 -120 -42 -58 -6 -225 15 -256 32 -28 15 -68 62 -96 112
-48 87 -52 83 65 73 56 -4 134 -8 172 -8z m-1939 -21 c46 -24 124 -90 124
-105 0 -10 -27 -19 -113 -35 -92 -18 -205 -56 -264 -91 -39 -23 -43 -23 -70
-9 -47 26 -166 142 -159 155 11 17 94 57 178 86 106 36 235 36 304 -1z m908
-83 c72 -45 141 -75 204 -91 103 -25 122 -31 122 -40 0 -5 -23 -36 -50 -69
-45 -55 -55 -61 -88 -61 -44 0 -216 58 -277 94 -111 66 -129 104 -72 157 62
59 79 60 161 10z m-4019 -17 c68 -31 105 -99 77 -140 -4 -6 -56 -19 -117 -29
-60 -10 -134 -26 -163 -37 -29 -11 -59 -17 -66 -15 -14 6 -52 119 -58 172 -3
26 2 32 37 49 42 21 146 35 205 28 19 -2 58 -15 85 -28z m4755 -36 c35 -43 40
-56 38 -93 -3 -41 -4 -43 -30 -38 -23 5 -29 1 -38 -22 -21 -56 33 -75 82 -28
15 14 30 25 32 22 15 -17 96 -159 96 -170 0 -33 -266 -408 -371 -524 -20 -22
-72 -80 -114 -130 -322 -373 -736 -674 -1205 -878 -268 -116 -591 -222 -815
-265 -166 -33 -183 -34 -208 -8 -12 13 -36 32 -53 44 -26 18 -33 32 -43 83 -9
44 -9 65 -2 72 14 14 14 50 -1 82 -9 20 -18 25 -37 23 -24 -3 -28 3 -48 62
-12 36 -18 68 -14 72 4 5 42 12 85 18 139 17 364 78 642 174 312 107 612 266
899 477 213 156 288 221 479 413 183 184 293 312 460 534 59 78 112 140 117
136 5 -3 28 -28 49 -56z m-3069 33 l23 -18 -73 -144 c-41 -79 -85 -159 -98
-177 -13 -18 -27 -49 -30 -70 -3 -20 -25 -98 -49 -172 -76 -237 -100 -396
-107 -715 -7 -315 46 -651 137 -862 134 -311 298 -588 455 -766 50 -57 62 -89
40 -103 -12 -7 -90 64 -125 116 -13 19 -66 91 -118 159 -96 125 -118 165 -244
436 -93 202 -98 214 -133 340 -69 249 -84 389 -76 690 10 321 23 407 108 702
30 102 42 137 84 228 12 28 38 86 57 130 50 117 112 244 119 244 4 1 17 -7 30
-18z m5338 -271 c42 -42 93 -91 113 -108 l38 -31 -42 -73 c-49 -86 -104 -158
-122 -158 -18 0 -55 43 -118 135 -65 95 -84 138 -102 227 -16 79 -8 130 30
196 l26 43 50 -77 c28 -42 85 -112 127 -154z m-3673 165 c58 -29 123 -91 108
-104 -5 -4 -48 -18 -96 -29 -52 -13 -135 -44 -204 -78 -136 -66 -126 -67 -229
36 -43 44 -65 72 -60 80 10 16 141 77 215 101 33 11 87 18 136 18 66 1 89 -3
130 -24z m1769 -18 c77 1 156 4 175 5 34 3 35 1 58 -55 12 -31 26 -78 31 -103
7 -38 6 -46 -10 -54 -55 -30 -323 9 -377 55 -29 24 -82 121 -82 148 0 13 6 15
33 9 17 -4 95 -6 172 -5z m-3330 -58 c-19 -22 -35 -45 -35 -52 0 -8 20 -28 45
-46 79 -57 159 -137 215 -215 64 -89 76 -84 67 25 -6 77 3 88 26 31 11 -27 13
-50 7 -81 -8 -44 -38 -94 -55 -94 -6 0 -23 24 -39 54 -36 65 -179 211 -258
262 -54 36 -57 39 -47 65 28 74 73 120 96 100 10 -8 5 -19 -22 -49z m2036 40
c39 -28 257 -126 313 -141 52 -14 55 -23 24 -64 -53 -71 -81 -94 -116 -94 -73
0 -299 90 -353 141 -44 41 -38 71 22 130 28 27 57 49 66 49 8 0 28 -9 44 -21z
m-3684 -84 c25 -17 77 -119 70 -138 -3 -8 -38 -18 -90 -26 -59 -9 -115 -26
-181 -56 l-95 -43 -24 37 c-28 42 -67 150 -60 166 8 22 78 48 178 66 105 19
166 17 202 -6z m3342 -48 c15 -18 -5 -37 -40 -37 -14 0 -46 -7 -70 -15 -68
-24 -219 -97 -219 -107 0 -4 13 -27 30 -49 16 -23 27 -46 24 -50 -12 -20 -130
90 -122 113 6 15 197 100 302 134 85 28 81 27 95 11z m3285 -114 c35 -97 104
-215 167 -287 l40 -46 -45 -62 c-25 -35 -61 -81 -79 -103 -42 -49 -43 -48
-125 83 -101 161 -122 284 -72 413 24 60 61 110 73 99 5 -4 23 -48 41 -97z
m-3143 79 c15 -9 46 -32 70 -51 50 -38 153 -88 252 -120 37 -13 67 -24 67 -25
0 -1 -34 -37 -75 -79 -68 -71 -78 -77 -115 -77 -89 0 -235 76 -329 173 -42 44
-52 59 -46 76 5 18 128 120 145 121 3 0 17 -8 31 -18z m-1857 -62 c86 -68 182
-169 210 -219 53 -98 68 -226 33 -275 -12 -16 -19 -10 -74 56 -85 104 -138
145 -305 238 -21 11 -38 25 -38 31 0 15 60 159 78 187 20 31 37 28 96 -18z
m3359 -5 c43 -8 128 -15 188 -15 l110 0 30 -65 c36 -76 49 -145 28 -146 -8 0
-41 0 -73 1 -95 3 -271 64 -314 110 -42 45 -74 100 -68 115 7 18 3 18 99 0z
m-4859 -85 c13 -14 27 -39 31 -56 6 -31 6 -32 -42 -39 -90 -13 -197 -54 -251
-95 -29 -22 -54 -40 -57 -40 -6 0 -60 107 -69 137 -6 18 2 26 51 54 82 47 165
69 246 66 56 -2 71 -7 91 -27z m3292 -145 c32 -21 94 -52 138 -70 44 -17 81
-36 83 -42 6 -16 -165 -143 -190 -143 -37 0 -181 78 -229 123 -66 64 -102 121
-94 151 3 14 32 44 67 70 l61 46 53 -48 c29 -27 79 -66 111 -87z m1446 98 c9
-16 19 -57 23 -93 7 -66 34 -142 54 -154 6 -4 11 -33 11 -64 0 -43 8 -73 30
-121 44 -92 38 -101 -66 -115 -33 -5 -51 -1 -86 19 -24 13 -68 29 -98 35 -59
12 -209 79 -210 94 0 5 28 47 63 95 35 47 88 120 117 161 65 89 131 170 139
170 4 0 14 -12 23 -27z m-2776 -44 c36 -39 305 -283 357 -324 42 -34 46 -45
17 -45 -11 0 -62 -16 -113 -36 -53 -21 -120 -40 -157 -43 -36 -4 -79 -14 -96
-23 -17 -9 -39 -15 -50 -13 -10 2 -48 4 -83 4 l-64 1 6 39 c3 22 17 66 32 98
21 45 27 72 26 123 0 50 4 69 18 85 11 11 29 53 41 93 12 39 25 72 29 72 4 0
20 -14 37 -31z m4344 -2 c0 -38 46 -180 79 -245 12 -24 42 -71 67 -104 24 -33
44 -66 44 -73 0 -8 -39 -47 -86 -87 -116 -99 -124 -98 -180 13 -80 155 -94
310 -39 406 40 69 84 123 101 123 9 0 14 -11 14 -33z m-1354 -58 c69 -21 128
-32 197 -36 l97 -6 15 -49 c29 -98 29 -115 4 -128 -69 -37 -306 33 -373 111
-40 47 -72 139 -48 139 5 0 53 -14 108 -31z m-4872 1 c26 -10 106 -77 106 -90
0 -4 -27 -18 -61 -31 -74 -29 -156 -93 -206 -159 -21 -27 -43 -49 -48 -49 -26
-2 -155 159 -155 192 0 18 57 70 101 92 39 21 165 54 206 54 17 1 43 -3 57 -9z
m1301 -30 c87 -30 137 -63 199 -132 99 -109 143 -238 106 -308 -11 -21 -11
-21 -53 13 -94 76 -181 126 -266 152 -119 37 -116 35 -112 85 4 59 51 210 65
210 1 0 29 -9 61 -20z m1654 -98 c92 -94 119 -113 205 -147 47 -18 44 -23 -58
-94 -82 -56 -119 -64 -162 -36 -53 34 -189 180 -208 222 -18 40 -18 44 -2 68
20 30 93 85 114 85 8 0 58 -44 111 -98z m3072 -78 c9 -121 50 -260 100 -341
18 -28 19 -36 8 -50 -29 -34 -176 -116 -196 -109 -8 3 -26 32 -41 63 -22 50
-27 75 -30 178 -6 176 6 225 74 293 30 29 60 52 67 49 7 -2 14 -33 18 -83z
m-3202 -152 c92 -90 112 -115 101 -123 -62 -39 -163 -89 -183 -89 -25 0 -70
43 -150 142 -38 46 -77 131 -77 166 0 22 40 60 99 95 l44 25 25 -51 c17 -35
64 -89 141 -165z m-2624 178 c24 -16 45 -35 47 -42 3 -7 -12 -25 -32 -39 -44
-32 -112 -110 -172 -199 -24 -36 -52 -65 -60 -65 -9 0 -46 26 -82 58 -75 67
-81 89 -41 148 31 43 81 85 162 134 75 45 118 46 178 5z m4745 -60 c57 -19
117 -31 183 -36 110 -8 117 -13 117 -90 0 -28 -6 -38 -32 -55 -28 -17 -45 -20
-110 -16 -66 3 -89 10 -155 43 -68 34 -81 45 -105 89 -37 68 -37 115 1 99 9
-3 54 -19 101 -34z m872 -36 c-2 -10 -6 -77 -8 -149 -5 -122 -4 -134 21 -205
45 -129 46 -125 -21 -156 -91 -40 -167 -65 -176 -56 -11 11 -28 136 -28 208 0
145 34 229 129 321 66 63 89 73 83 37z m-5434 -30 c28 -18 28 -32 -3 -74 -38
-52 -83 -170 -96 -251 -6 -41 -13 -76 -14 -77 -7 -7 -125 61 -165 95 -50 43
-52 76 -11 148 37 65 151 172 188 178 37 5 73 -2 101 -19z m2112 -46 c22 -34
40 -68 40 -76 0 -8 32 -47 70 -86 39 -40 70 -80 70 -90 0 -12 -29 -31 -97 -62
-139 -65 -142 -65 -180 -7 -58 88 -88 228 -63 299 10 28 79 81 107 83 7 1 31
-27 53 -61z m-1186 -8 c105 -36 217 -131 250 -213 21 -50 29 -132 16 -154 -11
-17 -19 -15 -138 44 -92 45 -153 68 -222 83 -52 12 -98 24 -102 28 -9 9 16
176 32 217 10 26 13 27 59 21 27 -4 74 -15 105 -26z m-842 -117 c-7 -54 -12
-149 -12 -210 0 -111 0 -113 -22 -113 -30 0 -83 33 -103 63 -12 19 -13 33 -5
78 16 89 60 202 97 253 50 69 60 53 45 -71z m1813 29 c1 -67 6 -89 39 -167 21
-49 39 -99 40 -109 2 -27 -53 -62 -137 -88 -47 -14 -72 -17 -79 -10 -6 6 -19
41 -29 78 -31 112 -22 251 19 298 14 16 126 76 142 76 3 0 5 -35 5 -78z m2059
53 l39 -23 -76 -36 c-93 -44 -172 -103 -259 -194 -58 -61 -108 -94 -108 -73 0
16 193 194 268 246 84 60 97 75 63 75 -21 0 -34 13 -24 24 13 13 60 4 97 -19z
m1231 -61 c-28 -108 -28 -280 1 -381 5 -17 0 -25 -23 -36 -29 -15 -210 -40
-224 -31 -25 15 8 238 51 345 23 57 42 87 66 105 38 30 126 65 136 56 4 -4 1
-30 -7 -58z m-3500 -11 c-32 -128 -30 -223 7 -319 18 -47 19 -57 7 -65 -22
-13 -198 -51 -213 -46 -19 7 -31 136 -22 230 18 186 48 220 195 226 31 1 33 0
26 -26z m2508 -4 c18 -10 10 -20 -89 -114 -63 -60 -132 -137 -164 -184 -30
-44 -62 -80 -70 -81 -25 0 -202 72 -207 86 -7 18 77 115 157 181 36 30 101 72
145 94 76 39 83 41 144 34 35 -3 73 -11 84 -16z m757 -6 c0 -10 -14 -54 -32
-98 -28 -71 -32 -95 -37 -215 l-6 -135 -60 -8 c-33 -4 -85 -6 -115 -5 l-55 3
-3 57 c-4 73 34 190 89 275 55 84 84 111 138 127 63 20 81 19 81 -1z m-3514
-29 c4 -14 1 -60 -6 -101 -8 -49 -9 -111 -5 -174 7 -90 6 -98 -14 -118 -30
-30 -145 -31 -161 -2 -26 49 -32 117 -14 177 11 39 15 78 11 121 -6 81 9 104
79 114 94 13 103 11 110 -17z m3004 -1 c0 -4 -17 -32 -38 -63 -34 -48 -99
-161 -174 -300 -23 -44 -25 -45 -68 -43 -70 4 -184 46 -188 69 -3 23 98 165
152 212 55 48 139 102 183 117 40 15 133 20 133 8z m270 -14 c0 -11 -11 -35
-24 -52 -58 -78 -119 -259 -118 -351 l1 -29 -135 5 c-77 3 -139 9 -145 15 -16
16 23 131 71 213 50 86 156 195 201 208 18 6 60 11 92 11 51 1 57 -1 57 -20z
m-3824 -140 c60 -16 127 -41 149 -54 87 -51 146 -138 160 -236 8 -57 -2 -66
-47 -40 -55 32 -156 58 -293 78 l-129 18 -8 35 c-4 19 -5 79 -2 133 l7 97 27
0 c14 0 76 -14 136 -31z m19 -299 c119 -16 207 -55 267 -117 41 -42 68 -98 68
-139 0 -26 -1 -26 -47 -20 -102 13 -319 18 -361 8 -38 -9 -46 -8 -62 8 -20 20
-34 98 -35 199 0 61 2 65 25 72 14 4 36 5 50 3 14 -2 57 -8 95 -14z m2285
-314 c346 -175 553 -256 808 -316 68 -16 126 -31 129 -34 19 -19 -54 -118
-120 -160 -29 -19 -71 -54 -94 -78 -24 -26 -58 -50 -83 -58 -24 -8 -60 -27
-82 -42 -21 -16 -65 -37 -97 -47 -32 -10 -74 -30 -93 -44 -33 -26 -46 -29
-145 -42 -50 -6 -56 -5 -114 34 -34 23 -85 48 -113 56 -218 62 -612 78 -1072
43 l-151 -11 -64 45 c-69 48 -110 68 -138 68 -10 0 -23 11 -31 24 -7 14 -49
57 -92 97 -74 67 -79 74 -62 86 10 7 32 13 50 13 93 0 537 133 829 247 129 51
367 164 447 213 18 11 40 20 48 20 8 0 116 -51 240 -114z m-1967 -14 c43 -19
51 -28 78 -88 43 -93 39 -100 -46 -96 -70 4 -201 -15 -305 -43 -94 -25 -92
-26 -130 73 -18 48 -34 103 -34 122 l-1 34 70 12 c39 7 126 11 195 10 103 -2
133 -6 173 -24z m121 -253 c42 -15 65 -32 96 -71 22 -28 39 -52 37 -54 -1 -1
-47 -10 -102 -19 -61 -11 -152 -37 -233 -67 -73 -27 -140 -48 -148 -46 -18 3
-113 163 -114 190 0 17 60 44 150 66 75 19 82 20 172 21 66 1 101 -4 142 -20z
m4041 -61 c-22 -109 -138 -382 -215 -504 -180 -286 -514 -603 -812 -770 -263
-148 -533 -234 -732 -234 l-94 0 -7 29 c-9 42 -43 68 -121 94 -58 20 -72 29
-85 56 -25 52 -65 66 -100 35 -15 -13 -24 -15 -46 -6 -16 6 -44 11 -63 11 -19
0 -60 10 -90 24 -30 13 -94 36 -141 51 -48 14 -92 33 -99 41 -11 13 -2 15 77
15 112 0 372 25 478 46 102 20 343 95 465 144 235 95 380 176 551 306 203 156
290 252 411 456 61 105 76 123 112 139 53 24 134 25 151 2 8 -10 27 -16 56
-17 38 -1 44 2 47 20 5 37 36 54 128 74 133 27 137 27 129 -12z m-940 -82 c17
-17 46 -43 65 -57 33 -25 34 -26 20 -60 -16 -41 -114 -165 -137 -173 -9 -4
-22 -1 -29 6 -19 20 -82 179 -98 246 -18 79 -12 85 78 76 60 -6 74 -11 101
-38z m175 26 c0 -14 -33 -62 -43 -62 -17 0 -87 48 -87 60 0 5 29 8 65 7 36 -1
65 -3 65 -5z m110 -7 c0 -20 -83 -164 -133 -230 -152 -203 -355 -366 -642
-516 -156 -81 -429 -180 -615 -223 -228 -51 -317 -60 -573 -53 -238 7 -284 13
-582 83 -88 20 -180 39 -205 42 -43 4 -69 16 -59 26 6 6 198 -25 354 -58 144
-31 491 -52 686 -42 423 22 859 169 1230 414 110 73 156 112 246 206 91 95
233 278 233 300 0 24 23 56 40 56 11 0 20 -2 20 -5z m-511 -57 c4 -13 18 -54
31 -93 12 -38 38 -99 57 -133 19 -36 31 -71 28 -80 -8 -22 -94 -91 -123 -98
-12 -4 -28 -1 -36 5 -23 19 -76 195 -76 251 0 56 8 76 53 133 35 42 54 47 66
15z m-2677 -43 c29 -15 73 -44 97 -64 50 -41 55 -38 -89 -71 -103 -24 -194
-61 -310 -127 -41 -24 -84 -43 -96 -43 -26 0 -97 99 -116 162 -11 38 -10 41
13 59 13 10 57 33 97 50 181 75 305 86 404 34z m2508 -117 c0 -57 15 -109 56
-192 19 -37 34 -76 34 -86 0 -18 -150 -130 -174 -130 -38 0 -70 220 -46 310
12 45 93 140 119 140 6 0 11 -17 11 -42z m-2263 -59 c17 -6 51 -29 74 -52 l43
-41 -29 -13 c-17 -6 -38 -12 -49 -13 -40 -1 -206 -64 -292 -111 -50 -28 -114
-71 -143 -96 -39 -34 -57 -44 -74 -39 -22 6 -137 149 -137 171 0 19 27 38 130
95 187 104 349 137 477 99z m2085 -119 c-1 -41 5 -109 13 -150 25 -120 27
-112 -39 -138 -33 -13 -74 -26 -91 -29 -31 -5 -32 -3 -38 33 -4 22 -7 78 -7
125 0 103 23 156 90 207 64 49 75 42 72 -48z m-1286 -10 c29 -59 38 -111 22
-133 -10 -14 -31 -18 -96 -20 l-84 -2 -19 47 c-10 26 -30 66 -44 88 -39 61
-35 69 38 72 34 2 84 1 111 -2 47 -5 51 -7 72 -50z m272 34 c25 -16 90 -139
79 -150 -6 -6 -110 -15 -206 -18 -34 -1 -36 1 -60 66 -14 36 -29 70 -33 74
-18 17 -7 43 20 46 57 7 178 -3 200 -18z m-592 -16 c37 -45 77 -134 78 -177
l1 -36 -95 -32 c-150 -50 -145 -52 -222 75 -88 145 -92 152 -80 164 12 12 169
35 244 37 41 1 50 -3 74 -31z m823 -8 c69 -20 141 -50 169 -73 9 -7 9 -13 1
-23 -17 -21 -34 -17 -47 11 -7 14 -23 27 -39 30 -15 3 -52 13 -81 21 -60 17
-75 13 -63 -19 4 -12 11 -35 15 -50 6 -25 4 -28 -15 -25 -17 2 -29 19 -50 70
-35 87 -22 94 110 58z m578 -162 c0 -79 2 -152 4 -162 3 -14 -7 -27 -30 -43
-39 -27 -166 -67 -187 -59 -18 7 -18 39 2 133 24 118 79 212 149 254 60 37 61
34 62 -123z m-1741 85 c22 -22 82 -151 91 -194 5 -27 0 -36 -41 -78 -26 -26
-74 -61 -107 -76 l-60 -29 -23 25 c-13 13 -33 49 -46 79 -12 30 -40 85 -61
122 -22 36 -39 74 -39 83 0 29 147 82 232 84 22 1 43 -6 54 -16z m1548 -35
c-3 -13 -14 -39 -24 -58 -30 -60 -53 -176 -46 -230 6 -47 6 -48 -24 -58 -16
-6 -69 -14 -116 -18 l-87 -7 7 57 c11 83 41 163 82 215 40 53 145 120 187 121
25 0 27 -3 21 -22z m-1883 -70 c43 -40 84 -110 118 -201 45 -121 43 -128 -44
-144 -38 -7 -122 -14 -186 -15 -104 -3 -119 -1 -138 17 -19 16 -21 26 -15 59
9 56 56 169 85 204 25 31 126 102 145 102 6 0 22 -10 35 -22z m1639 13 c0 -5
-18 -47 -40 -93 -30 -63 -41 -101 -46 -155 -5 -54 -11 -74 -23 -77 -9 -3 -60
-8 -113 -12 l-98 -6 0 33 c0 39 46 142 87 195 24 33 117 103 153 117 24 9 80
8 80 -2z m-247 -37 c3 -4 -12 -31 -34 -61 -45 -61 -76 -125 -94 -193 l-11 -45
-91 -3 c-113 -3 -123 4 -99 76 37 109 103 180 199 213 52 18 118 25 130 13z
m-259 -13 c4 -5 -5 -22 -18 -38 -42 -51 -93 -137 -112 -191 -19 -52 -19 -53
-54 -48 -19 3 -60 8 -91 12 -31 3 -62 10 -70 14 -22 14 11 69 92 155 55 58 82
78 118 89 53 17 127 20 135 7z m-254 -21 c0 -6 -15 -26 -33 -45 -18 -18 -52
-65 -77 -104 -49 -77 -53 -79 -140 -60 -65 14 -84 45 -54 87 40 56 304 161
304 122z m-379 -138 c-18 -35 -25 -40 -60 -44 -33 -3 -38 -1 -31 12 16 29 97
86 108 76 2 -2 -6 -22 -17 -44z m-220 -191 c24 -30 38 -80 45 -172 9 -99 -1
-165 -25 -172 -36 -9 -193 24 -251 53 -92 46 -94 85 -14 207 65 98 92 115 173
110 41 -3 59 -9 72 -26z m234 -22 c39 -12 78 -29 88 -38 34 -33 51 -257 22
-281 -11 -9 -38 -10 -106 -4 -112 11 -122 21 -145 139 -8 44 -22 106 -30 138
-8 31 -12 62 -8 68 9 14 86 5 179 -22z m-535 -4 c-1 -66 -55 -185 -85 -185
-31 0 -128 161 -109 180 19 18 194 23 194 5z m871 -61 c132 -38 174 -56 182
-76 7 -19 -9 -112 -25 -145 -8 -17 -27 -33 -48 -40 -38 -13 -239 -17 -255 -5
-6 4 -21 48 -33 98 -35 146 -28 204 27 204 16 0 84 -16 152 -36z m284 -109 c6
-6 47 -24 92 -39 46 -15 86 -32 89 -38 10 -17 -17 -95 -41 -118 -21 -20 -27
-21 -77 -11 -71 15 -148 64 -148 94 0 22 24 109 35 127 7 11 36 2 50 -15z
m313 -121 c69 -20 122 -50 122 -70 0 -8 -9 -33 -21 -56 l-21 -40 -46 6 c-26 3
-67 16 -92 29 -39 19 -45 26 -43 52 7 104 9 105 101 79z m-369 -80 c92 -21
112 -37 118 -96 6 -54 -25 -130 -60 -150 -12 -7 -60 -12 -107 -13 -83 0 -87 1
-129 34 -24 19 -50 50 -58 68 -12 30 -12 38 5 76 23 51 39 65 94 82 56 18 54
18 137 -1z m679 -37 c18 -14 15 -51 -9 -92 -16 -26 -26 -34 -38 -29 -9 3 -34
11 -56 17 -22 5 -46 14 -52 20 -23 17 -15 67 15 97 l29 28 49 -15 c27 -9 55
-20 62 -26z m-348 -62 c41 -14 94 -30 118 -36 23 -5 42 -14 42 -18 0 -9 -132
-48 -196 -58 -33 -5 -34 -5 -34 29 0 24 -8 42 -25 58 -57 54 -21 63 95 25z
m430 -15 c0 -11 -6 -20 -12 -20 -7 -1 -2 -7 12 -15 30 -17 69 -19 105 -5 28
11 65 -5 65 -27 0 -17 -111 -17 -160 0 -35 12 -49 40 -36 73 8 21 26 17 26 -6z
m-26 -141 c15 -28 17 -45 12 -84 -16 -101 -114 -140 -183 -73 -22 22 -33 41
-33 61 0 88 104 177 165 142 11 -7 29 -27 39 -46z m125 11 c34 -9 42 -15 39
-32 -3 -23 -60 -72 -96 -83 -22 -6 -23 -4 -21 42 0 26 -2 60 -6 76 -7 26 -6
27 18 18 13 -5 43 -15 66 -21z m-341 -167 c24 -33 14 -36 -115 -29 -141 7
-176 13 -170 30 6 17 73 25 177 20 73 -3 98 -8 108 -21z"/>
<path d="M6532 9241 c-22 -14 -9 -44 22 -52 22 -6 32 -4 42 9 11 14 10 20 -7
35 -23 19 -37 21 -57 8z"/>
<path d="M6643 9169 c-31 -12 -29 -41 6 -66 21 -16 31 -19 40 -10 31 31 -5 92
-46 76z"/>
<path d="M6732 9078 c-19 -19 -14 -35 17 -57 30 -21 61 -19 61 4 0 18 -39 65
-54 65 -6 0 -17 -5 -24 -12z"/>
<path d="M6825 8970 c-15 -17 -16 -24 -5 -49 17 -41 48 -50 72 -21 23 28 23
32 -3 64 -24 31 -40 33 -64 6z"/>
<path d="M6907 8872 c-29 -32 -16 -81 24 -95 21 -7 59 32 59 60 0 40 -57 64
-83 35z"/>
<path d="M6988 8769 c-24 -14 -23 -50 2 -77 40 -43 80 13 50 69 -12 21 -26 23
-52 8z"/>
<path d="M7079 8639 c-28 -28 -22 -73 9 -77 28 -4 64 33 60 61 -5 31 -45 40
-69 16z"/>
<path d="M7142 8534 c-33 -23 -27 -75 10 -88 49 -17 84 35 58 85 -13 23 -38
24 -68 3z"/>
<path d="M7206 8419 c-31 -24 -35 -68 -8 -92 58 -53 125 34 72 91 -26 27 -31
27 -64 1z"/>
<path d="M7268 8289 c-25 -14 -24 -65 1 -79 31 -16 71 7 71 41 0 40 -36 59
-72 38z"/>
<path d="M7310 8170 c-25 -47 9 -108 47 -84 34 21 37 40 14 73 -26 36 -46 39
-61 11z"/>
<path d="M7358 8036 c-17 -38 -4 -58 34 -54 26 2 34 8 36 26 7 50 -49 72 -70
28z"/>
<path d="M7402 7928 c-15 -18 -3 -67 19 -79 42 -22 74 25 49 72 -12 21 -52 26
-68 7z"/>
<path d="M7462 7813 c-41 -17 -32 -83 12 -83 34 0 52 25 40 58 -9 27 -27 35
-52 25z"/>
<path d="M7490 7676 c-6 -8 -10 -25 -8 -38 2 -18 10 -24 36 -26 36 -4 48 13
38 53 -7 29 -45 35 -66 11z"/>
<path d="M7512 7568 c-29 -29 -1 -98 41 -98 39 0 44 80 7 100 -24 13 -33 13
-48 -2z"/>
<path d="M7536 7424 c-34 -34 -9 -80 38 -68 25 6 31 20 26 54 -4 31 -40 39
-64 14z"/>
<path d="M7544 7297 c-10 -27 1 -80 19 -91 35 -22 77 26 61 71 -7 22 -17 29
-42 31 -21 2 -34 -2 -38 -11z"/>
<path d="M7562 7158 c-7 -7 -12 -24 -12 -38 0 -49 51 -68 83 -32 34 37 15 82
-33 82 -14 0 -31 -5 -38 -12z"/>
<path d="M7572 7024 c-25 -17 -31 -71 -10 -92 17 -17 54 -15 72 4 31 30 11
104 -27 104 -7 0 -23 -7 -35 -16z"/>
<path d="M7593 6873 c-34 -7 -54 -40 -41 -69 13 -29 41 -39 68 -24 24 13 37
57 23 78 -11 18 -20 21 -50 15z"/>
<path d="M7547 6692 c-20 -22 -22 -63 -5 -80 35 -35 93 9 86 65 -2 23 -8 29
-34 31 -20 2 -36 -3 -47 -16z"/>
<path d="M7527 6542 c-18 -20 -22 -68 -8 -90 5 -8 21 -12 37 -10 22 2 34 13
49 40 19 36 19 37 1 57 -24 26 -58 27 -79 3z"/>
<path d="M7493 6392 c-21 -14 -26 -60 -9 -87 31 -47 89 -23 102 42 5 25 2 33
-14 42 -24 13 -62 14 -79 3z"/>
<path d="M7453 6238 c-23 -29 -22 -60 3 -85 37 -37 74 -29 93 20 12 33 12 40
-1 53 -21 21 -81 29 -95 12z"/>
<path d="M7414 6102 c-19 -12 -27 -52 -14 -67 27 -32 110 -7 110 33 0 31 -65
55 -96 34z"/>
<path d="M7366 5968 c-22 -32 -20 -64 6 -82 31 -22 51 -20 76 7 33 35 29 65
-13 83 -45 19 -51 18 -69 -8z"/>
<path d="M7296 5824 c-18 -48 1 -84 45 -84 49 0 79 69 40 90 -30 15 -78 12
-85 -6z"/>
<path d="M7247 5702 c-22 -24 -21 -45 3 -67 18 -16 20 -16 55 5 41 25 43 32
13 60 -27 25 -50 26 -71 2z"/>
<path d="M4536 9849 c-28 -22 -35 -66 -14 -87 22 -22 75 -14 97 14 27 34 26
46 -2 72 -29 27 -47 28 -81 1z"/>
<path d="M4430 9371 c0 -67 12 -81 69 -81 46 0 62 24 59 84 l-3 51 -62 3 -63
3 0 -60z"/>
<path d="M4310 9413 c-41 -8 -50 -22 -50 -78 0 -72 14 -82 83 -64 l52 14 3 52
c3 44 0 53 -20 67 -12 9 -27 15 -33 15 -5 -1 -21 -4 -35 -6z"/>
<path d="M4137 9358 c-22 -16 -35 -112 -18 -123 16 -10 108 14 114 29 3 7 1
34 -5 59 -9 44 -12 47 -42 47 -18 0 -40 -6 -49 -12z"/>
<path d="M3975 9340 c-50 -20 -57 -80 -16 -131 16 -20 20 -21 57 -9 59 19 67
28 61 77 -2 24 -10 50 -17 58 -13 16 -53 19 -85 5z"/>
<path d="M3801 9281 c-25 -25 -27 -58 -7 -106 17 -40 36 -44 93 -20 33 14 35
17 30 50 -10 62 -29 90 -64 93 -22 2 -38 -3 -52 -17z"/>
<path d="M3657 9214 c-26 -14 -50 -31 -53 -39 -3 -8 5 -34 18 -57 20 -36 28
-43 53 -42 17 1 43 7 59 13 28 11 28 14 23 61 -7 56 -22 90 -40 90 -7 -1 -34
-12 -60 -26z"/>
<path d="M4150 9166 c-160 -37 -210 -55 -345 -123 -157 -79 -174 -88 -188
-102 -20 -20 6 -11 82 28 117 60 335 142 480 181 45 12 84 26 87 31 7 12 -5
10 -116 -15z"/>
<path d="M3487 9120 c-14 -11 -29 -29 -32 -40 -7 -23 26 -85 51 -94 16 -6 104
40 104 55 0 5 -10 29 -22 54 -18 37 -27 45 -49 45 -14 0 -38 -9 -52 -20z"/>
<path d="M3341 9014 c-17 -14 -31 -31 -31 -37 0 -17 64 -77 81 -77 16 1 37 16
58 43 12 15 10 22 -13 57 -31 47 -52 50 -95 14z"/>
<path d="M3204 8908 c-26 -18 -49 -38 -51 -45 -5 -13 51 -79 78 -94 37 -20
127 51 114 90 -10 33 -55 81 -75 81 -10 0 -39 -15 -66 -32z"/>
<path d="M3065 8779 c-25 -23 -45 -49 -45 -58 0 -14 70 -81 84 -81 16 0 86 75
86 91 0 19 -56 89 -71 89 -5 0 -30 -19 -54 -41z"/>
<path d="M3240 8616 c-51 -47 -101 -98 -111 -115 -9 -16 -22 -32 -28 -36 -19
-11 -93 -126 -86 -133 7 -7 20 7 92 107 26 35 89 106 141 158 52 51 92 96 89
99 -3 3 -47 -33 -97 -80z"/>
<path d="M2954 8652 c-16 -10 -34 -48 -34 -69 0 -21 49 -73 68 -73 19 0 82 61
82 80 0 40 -83 84 -116 62z"/>
<path d="M2802 8596 c-17 -19 -50 -68 -73 -108 -23 -40 -55 -94 -71 -119 -31
-50 -35 -69 -14 -69 7 0 28 33 46 72 19 40 49 92 67 116 43 56 87 132 81 138
-3 2 -19 -11 -36 -30z"/>
<path d="M2835 8493 c-14 -21 -25 -46 -25 -55 0 -31 37 -58 78 -58 31 0 41 5
55 29 24 41 22 53 -16 89 -43 41 -61 40 -92 -5z"/>
<path d="M2763 8343 c-32 -47 -46 -81 -40 -96 6 -17 93 -51 112 -43 18 7 68
104 62 120 -3 7 -24 18 -47 25 -23 7 -48 15 -55 17 -7 3 -21 -7 -32 -23z"/>
<path d="M2689 8178 c-9 -7 -25 -37 -34 -67 -18 -54 -18 -55 5 -73 43 -35 104
-20 130 33 25 48 25 85 2 98 -34 18 -86 23 -103 9z"/>
<path d="M4543 9008 c-51 -9 -53 -11 -63 -51 -6 -23 -26 -87 -45 -142 -44
-125 -44 -126 -2 -112 76 28 221 217 215 282 -3 35 -21 39 -105 23z"/>
<path d="M4867 9013 l-57 -4 -70 -138 c-38 -76 -67 -141 -64 -144 7 -7 52 6
91 27 36 18 130 125 169 191 26 45 27 77 2 73 -7 -1 -39 -3 -71 -5z"/>
<path d="M5084 8953 c-15 -27 -45 -79 -68 -118 -22 -38 -43 -74 -45 -79 -5
-12 120 3 141 17 10 7 45 53 77 102 60 90 60 90 39 108 -13 11 -37 17 -69 17
-47 0 -49 -1 -75 -47z"/>
<path d="M4226 8951 c-29 -10 -52 -25 -56 -37 -4 -10 -10 -59 -13 -109 -4 -49
-14 -114 -22 -143 -9 -30 -14 -57 -11 -60 10 -9 53 15 97 55 25 22 54 63 70
99 30 66 53 172 43 198 -8 20 -44 20 -108 -3z"/>
<path d="M3928 8839 c-67 -34 -74 -50 -59 -135 5 -32 13 -94 17 -137 3 -42 11
-80 16 -83 17 -11 60 27 78 69 28 64 50 234 36 276 -6 19 -15 36 -21 37 -5 2
-36 -10 -67 -27z"/>
<path d="M3665 8682 c-35 -28 -61 -57 -63 -70 -2 -13 11 -62 28 -109 17 -48
35 -118 40 -156 4 -38 11 -71 14 -74 10 -11 35 19 61 72 36 73 41 210 12 305
-11 36 -23 68 -27 72 -3 5 -33 -14 -65 -40z"/>
<path d="M3406 8464 c-26 -31 -46 -60 -46 -66 0 -5 19 -32 43 -59 23 -27 67
-89 97 -139 l54 -90 18 28 c40 60 8 218 -69 345 -13 20 -30 37 -38 37 -7 0
-34 -25 -59 -56z"/>
<path d="M3220 7631 c-22 -6 -25 -13 -28 -55 -3 -51 9 -76 38 -76 28 0 50 33
50 78 0 47 -19 63 -60 53z"/>
<path d="M3338 7623 c-24 -28 -29 -53 -16 -76 33 -64 108 -39 108 35 0 51 -60
78 -92 41z"/>
<path d="M3469 7619 c-17 -17 -20 -28 -14 -57 7 -42 11 -47 42 -56 28 -9 73
32 73 66 0 60 -60 88 -101 47z"/>
<path d="M3072 7619 c-20 -8 -23 -15 -20 -56 2 -39 7 -50 28 -60 21 -11 28 -9
47 9 30 28 29 69 0 96 -26 25 -24 24 -55 11z"/>
<path d="M3627 7612 c-25 -27 -22 -88 4 -102 11 -6 30 -10 42 -8 18 2 24 13
31 52 8 43 6 51 -10 63 -25 18 -48 16 -67 -5z"/>
<path d="M2931 7586 c-25 -30 11 -106 49 -106 28 0 41 25 38 72 -3 41 -4 43
-39 46 -23 2 -40 -2 -48 -12z"/>
<path d="M3756 7584 c-10 -26 -7 -69 6 -82 7 -7 26 -12 43 -12 17 0 36 5 43
12 7 7 12 26 12 43 0 17 -5 36 -12 43 -18 18 -85 15 -92 -4z"/>
<path d="M2805 7570 c-32 -35 -5 -110 40 -110 33 0 49 24 42 66 -11 64 -47 83
-82 44z"/>
<path d="M3902 7567 c-7 -8 -9 -29 -5 -51 6 -37 40 -66 77 -66 41 0 63 100 27
120 -28 14 -86 13 -99 -3z"/>
<path d="M2681 7541 c-17 -30 -13 -53 12 -85 18 -22 28 -27 45 -22 34 11 44
39 29 83 -10 32 -17 38 -44 41 -23 2 -34 -2 -42 -17z"/>
<path d="M4055 7526 c-9 -14 -15 -39 -13 -57 3 -29 8 -34 36 -40 28 -6 36 -2
57 23 31 37 32 62 3 82 -33 23 -65 20 -83 -8z"/>
<path d="M2554 7505 c-26 -26 -26 -43 -1 -93 8 -18 18 -22 41 -20 57 6 69 86
18 124 -24 19 -30 17 -58 -11z"/>
<path d="M4181 7487 c-6 -8 -14 -28 -17 -45 -7 -34 14 -52 60 -52 25 0 56 32
56 57 0 39 -74 69 -99 40z"/>
<path d="M2393 7425 c-16 -34 -16 -36 4 -63 27 -37 57 -39 88 -8 19 20 24 32
19 49 -11 36 -35 57 -66 57 -23 0 -32 -7 -45 -35z"/>
<path d="M4319 7439 c-24 -24 -22 -67 4 -83 22 -14 47 1 65 38 12 24 12 30 -4
47 -22 24 -39 24 -65 -2z"/>
<path d="M4430 7410 c-22 -22 -26 -70 -8 -88 30 -30 78 6 78 59 0 38 -43 56
-70 29z"/>
<path d="M2272 7404 c-23 -16 -28 -47 -13 -87 23 -59 91 -35 91 30 0 67 -31
90 -78 57z"/>
<path d="M4526 7358 c-30 -43 -11 -83 31 -67 31 11 46 44 33 69 -14 26 -45 25
-64 -2z"/>
<path d="M2130 7347 c-34 -17 -39 -68 -11 -96 23 -23 70 -28 89 -9 19 19 14
72 -8 96 -24 25 -35 27 -70 9z"/>
<path d="M1998 7279 c-31 -18 -40 -46 -28 -84 10 -30 16 -35 44 -35 65 0 87
77 33 115 -25 17 -26 18 -49 4z"/>
<path d="M1852 7188 c-18 -18 -14 -63 8 -83 17 -15 24 -16 50 -5 58 24 48 100
-13 100 -18 0 -38 -5 -45 -12z"/>
<path d="M1727 7112 c-10 -10 -17 -27 -17 -38 0 -25 35 -64 58 -64 31 0 62 29
62 59 0 54 -68 82 -103 43z"/>
<path d="M1621 7024 c-18 -13 -21 -22 -16 -43 10 -38 24 -51 56 -51 27 0 49
22 49 50 0 13 -45 60 -57 60 -5 0 -19 -7 -32 -16z"/>
<path d="M1517 6942 c-22 -24 -21 -65 1 -85 24 -22 34 -21 64 3 19 15 24 26
21 47 -9 50 -55 69 -86 35z"/>
<path d="M1399 6846 c-10 -20 -8 -30 10 -55 35 -48 84 -34 84 24 0 35 -20 55
-54 55 -21 0 -32 -7 -40 -24z"/>
<path d="M1302 6758 c-29 -29 5 -98 48 -98 36 0 52 49 30 91 -12 22 -59 26
-78 7z"/>
<path d="M1220 6665 c-27 -33 22 -102 67 -93 28 5 29 55 2 84 -26 27 -51 31
-69 9z"/>
<path d="M1135 6560 c-22 -24 -15 -45 25 -65 53 -27 89 12 60 66 -14 25 -62
25 -85 -1z"/>
<path d="M1088 6479 c-10 -5 -18 -21 -18 -35 0 -18 9 -29 36 -41 35 -17 36
-17 55 6 26 31 24 38 -13 61 -38 23 -37 23 -60 9z"/>
<path d="M1023 6364 c-3 -8 0 -27 6 -40 15 -33 64 -31 69 2 6 41 -60 75 -75
38z"/>
<path d="M978 6279 c-27 -15 -24 -74 4 -93 30 -21 51 -20 72 3 23 25 14 54
-24 81 -32 23 -30 23 -52 9z"/>
<path d="M912 6168 c-30 -30 6 -82 54 -76 43 5 53 32 24 63 -25 27 -58 33 -78
13z"/>
<path d="M888 6059 c-38 -22 -14 -69 34 -69 36 0 45 22 24 55 -18 27 -31 30
-58 14z"/>
<path d="M832 5948 c-17 -17 -15 -42 6 -61 27 -25 60 -21 74 8 9 21 8 28 -7
45 -20 22 -55 26 -73 8z"/>
<path d="M808 5849 c-25 -14 -24 -65 1 -79 46 -24 91 -6 91 38 0 17 -9 27 -35
38 -40 16 -35 16 -57 3z"/>
<path d="M778 5714 c-16 -35 0 -57 48 -65 51 -9 64 -2 64 31 0 38 -24 60 -66
60 -27 0 -37 -5 -46 -26z"/>
<path d="M772 5608 c-31 -31 4 -88 55 -88 27 0 53 25 53 50 0 35 -82 64 -108
38z"/>
<path d="M752 5482 c-8 -5 -12 -22 -10 -38 7 -60 109 -71 116 -13 2 14 -4 31
-12 38 -19 16 -78 24 -94 13z"/>
<path d="M757 5362 c-19 -21 -23 -77 -6 -87 6 -4 26 -7 46 -8 59 -2 83 53 41
93 -27 25 -60 26 -81 2z"/>
<path d="M752 5228 c-13 -13 -16 -67 -4 -84 24 -36 84 -33 96 4 18 56 -54 118
-92 80z"/>
<path d="M748 5069 c-18 -10 -24 -55 -10 -75 14 -20 43 -24 78 -9 26 11 34 20
34 39 0 47 -56 72 -102 45z"/>
<path d="M763 4925 c-29 -21 -29 -46 0 -74 20 -18 29 -20 50 -12 36 14 49 41
34 72 -15 29 -53 36 -84 14z"/>
<path d="M777 4789 c-30 -43 15 -90 63 -66 58 29 50 80 -13 85 -27 2 -39 -2
-50 -19z"/>
<path d="M829 4675 c-34 -18 -44 -53 -22 -77 32 -36 93 -15 93 32 0 26 -22 61
-38 60 -4 -1 -19 -7 -33 -15z"/>
<path d="M842 4563 c-22 -9 -34 -41 -22 -63 19 -36 90 -18 90 23 0 38 -29 56
-68 40z"/>
<path d="M871 4447 c-39 -20 -47 -41 -28 -71 20 -30 52 -34 85 -10 17 12 21
21 16 42 -13 52 -30 61 -73 39z"/>
<path d="M886 4308 c-47 -67 27 -117 97 -66 15 12 16 18 7 43 -13 35 -26 45
-62 45 -17 0 -33 -9 -42 -22z"/>
<path d="M958 4195 c-32 -18 -43 -47 -28 -76 10 -18 18 -20 47 -16 63 11 82
48 43 87 -24 24 -27 24 -62 5z"/>
<path d="M1001 4064 c-25 -32 -26 -36 -3 -64 15 -19 21 -20 45 -9 32 15 41 37
28 73 -13 34 -43 34 -70 0z"/>
<path d="M1042 3945 c-39 -49 2 -99 58 -70 33 17 38 39 14 73 -20 29 -48 28
-72 -3z"/>
<path d="M1102 3834 c-27 -19 -28 -44 -3 -75 l18 -22 37 22 c41 26 49 63 17
81 -27 14 -43 13 -69 -6z"/>
<path d="M1150 3718 c-25 -27 -25 -30 -1 -59 16 -20 23 -22 47 -14 21 8 30 18
32 38 7 55 -40 76 -78 35z"/>
<path d="M1215 3615 c-31 -30 -31 -37 -2 -71 18 -21 29 -26 49 -21 43 11 64
88 29 107 -30 16 -50 12 -76 -15z"/>
<path d="M1300 3503 c-27 -35 -22 -54 20 -75 33 -17 35 -17 57 4 25 23 30 67
11 86 -21 21 -65 14 -88 -15z"/>
<path d="M1394 3406 c-35 -30 -37 -35 -27 -59 19 -42 50 -44 89 -6 38 37 42
58 16 82 -26 23 -33 22 -78 -17z"/>
<path d="M1481 3324 c-38 -32 -40 -65 -5 -93 35 -28 39 -27 63 13 23 37 27 76
9 94 -18 18 -33 15 -67 -14z"/>
<path d="M1568 3225 c-25 -33 -22 -59 6 -74 49 -27 98 38 61 79 -24 26 -46 25
-67 -5z"/>
<path d="M1663 3153 c-18 -9 -35 -23 -38 -30 -16 -43 65 -83 92 -47 21 29 27
63 13 79 -15 18 -26 18 -67 -2z"/>
<path d="M1748 3070 c-37 -37 -33 -59 14 -85 36 -19 37 -19 57 -1 24 21 29 78
9 93 -32 24 -50 23 -80 -7z"/>
<path d="M1865 2984 c-30 -33 -31 -48 -5 -74 29 -29 57 -25 80 13 25 40 25 42
0 67 -27 27 -46 25 -75 -6z"/>
<path d="M1960 2925 c-22 -58 -2 -99 45 -93 39 4 63 45 49 85 -8 23 -16 29
-47 31 -32 3 -38 0 -47 -23z"/>
<path d="M2101 2854 c-27 -34 -27 -80 -1 -94 27 -14 54 1 70 40 10 25 10 34
-4 55 -21 32 -39 32 -65 -1z"/>
<path d="M2223 2820 c-34 -14 -40 -56 -12 -86 32 -35 55 -31 78 15 l20 38 -23
22 c-24 23 -30 24 -63 11z"/>
<path d="M2332 2768 c-5 -7 -13 -27 -16 -45 -6 -25 -3 -36 13 -52 27 -27 36
-26 55 1 23 32 21 85 -3 98 -26 13 -36 13 -49 -2z"/>
<path d="M6305 7753 c-11 -3 -26 -10 -32 -15 -15 -12 -17 -76 -3 -112 9 -24
15 -26 64 -26 60 0 86 16 86 54 0 30 -20 89 -34 98 -12 8 -49 9 -81 1z"/>
<path d="M6113 7688 c-54 -18 -63 -24 -63 -45 0 -30 37 -103 51 -103 19 0 134
31 141 38 9 10 -27 113 -43 123 -18 11 -13 12 -86 -13z"/>
<path d="M5933 7635 c-41 -18 -57 -48 -48 -94 9 -47 21 -61 56 -61 39 0 99 30
99 50 0 26 -21 83 -38 103 -18 20 -27 21 -69 2z"/>
<path d="M5761 7559 l-43 -19 4 -56 c3 -32 11 -62 21 -71 14 -15 20 -14 71 7
63 25 67 35 40 113 -18 53 -27 56 -93 26z"/>
<path d="M5605 7493 c-16 -8 -38 -22 -47 -31 -21 -17 -24 -69 -6 -107 18 -40
47 -41 107 -4 48 30 51 35 45 63 -12 58 -32 96 -51 96 -10 -1 -31 -8 -48 -17z"/>
<path d="M5404 7380 c-66 -37 -73 -62 -36 -115 15 -22 36 -41 45 -43 10 -2 38
8 62 23 36 21 45 31 45 54 0 41 -19 90 -40 101 -24 13 -17 14 -76 -20z"/>
<path d="M5803 7343 c-13 -2 -23 -9 -23 -14 0 -13 13 -11 36 6 10 8 17 14 14
13 -3 0 -15 -3 -27 -5z"/>
<path d="M5233 7260 c-52 -31 -56 -49 -23 -107 16 -29 34 -55 40 -58 6 -4 32
11 57 32 26 21 51 41 56 44 5 4 1 21 -8 40 -37 73 -65 84 -122 49z"/>
<path d="M5571 7212 c-145 -82 -218 -134 -318 -228 -54 -50 -111 -103 -128
-117 -16 -15 -25 -27 -18 -27 7 0 29 16 50 35 21 19 43 35 49 35 6 0 46 34 90
75 70 68 118 101 314 222 114 70 83 75 -39 5z"/>
<path d="M5079 7143 c-43 -35 -49 -43 -49 -69 0 -22 65 -104 82 -104 6 0 31
16 54 36 51 41 54 61 21 119 -29 51 -61 57 -108 18z"/>
<path d="M4918 7015 c-55 -37 -63 -57 -39 -102 47 -88 65 -92 136 -29 55 48
55 58 0 124 -32 39 -49 40 -97 7z"/>
<path d="M4753 6859 c-56 -39 -57 -68 -5 -128 l38 -44 62 48 c34 27 62 54 62
62 0 36 -64 94 -102 93 -7 -1 -32 -14 -55 -31z"/>
<path d="M4595 6727 c-57 -55 -58 -82 -9 -137 20 -22 44 -40 53 -40 21 0 111
90 111 111 0 14 -89 109 -103 109 -4 0 -27 -19 -52 -43z"/>
<path d="M4435 6569 c-28 -25 -45 -50 -45 -64 0 -22 73 -115 91 -115 14 0 79
62 94 89 12 24 11 30 -6 51 -10 14 -19 30 -19 37 0 14 -39 43 -57 43 -8 0 -34
-19 -58 -41z"/>
<path d="M4292 6410 c-28 -21 -53 -44 -57 -49 -9 -15 28 -92 58 -120 31 -28
43 -22 105 53 35 43 39 52 31 75 -12 31 -58 81 -75 81 -7 0 -35 -18 -62 -40z"/>
<path d="M4118 6250 c-21 -23 -38 -47 -38 -55 0 -19 97 -95 121 -95 11 0 32
18 48 41 26 35 28 44 19 70 -11 33 -65 79 -93 79 -10 0 -35 -18 -57 -40z"/>
<path d="M4023 6108 c-24 -27 -53 -81 -53 -101 0 -12 82 -77 98 -77 4 0 25 17
45 38 51 52 49 77 -9 125 -26 20 -50 37 -54 37 -3 0 -16 -10 -27 -22z"/>
<path d="M3891 5935 c-17 -20 -31 -39 -31 -44 0 -11 53 -83 74 -101 16 -13 22
-9 62 35 24 28 43 57 44 65 0 19 -77 80 -101 80 -9 0 -31 -16 -48 -35z"/>
<path d="M7904 7543 c-3 -10 -12 -34 -20 -55 -13 -36 -13 -37 21 -62 19 -15
47 -29 63 -32 25 -5 33 -1 51 25 34 48 26 90 -24 118 -48 27 -84 29 -91 6z"/>
<path d="M8093 7462 c-7 -4 -19 -25 -28 -46 -15 -35 -15 -39 5 -71 24 -39 66
-69 86 -61 21 8 54 67 54 98 0 41 -86 100 -117 80z"/>
<path d="M8340 7455 c0 -7 30 -34 68 -59 37 -25 96 -72 132 -105 44 -40 68
-56 75 -49 11 11 -33 53 -168 164 -79 64 -107 77 -107 49z"/>
<path d="M8229 7314 c-12 -26 -18 -55 -15 -67 7 -24 71 -77 93 -77 17 0 73 77
73 101 0 22 -85 89 -112 89 -13 0 -26 -14 -39 -46z"/>
<path d="M8390 7196 c-39 -57 -38 -76 6 -104 43 -28 64 -23 98 26 34 49 33 73
-4 100 -44 33 -65 28 -100 -22z"/>
<path d="M8664 7189 c-4 -7 57 -75 156 -171 102 -100 164 -168 165 -183 2 -12
24 -50 49 -85 25 -34 56 -84 68 -111 25 -54 43 -68 51 -39 6 25 -102 196 -170
271 -29 31 -53 63 -53 70 0 17 -232 259 -247 259 -7 0 -15 -5 -19 -11z"/>
<path d="M8521 7093 c-23 -27 -41 -53 -41 -59 0 -15 62 -94 75 -94 17 1 75 59
86 86 7 20 6 32 -6 51 -21 32 -53 63 -64 63 -5 0 -28 -21 -50 -47z"/>
<path d="M8628 6949 c-21 -17 -38 -38 -38 -47 0 -10 18 -38 41 -64 39 -46 41
-47 67 -34 15 8 40 28 56 45 27 28 28 32 16 61 -15 37 -55 70 -84 70 -11 -1
-38 -14 -58 -31z"/>
<path d="M8765 6807 c-25 -24 -45 -49 -45 -55 0 -20 71 -92 91 -92 20 0 89 84
89 107 0 17 -63 83 -79 83 -6 0 -31 -19 -56 -43z"/>
<path d="M8882 6657 c-43 -44 -41 -74 9 -137 l40 -51 37 22 c80 48 84 57 52
120 -44 86 -86 100 -138 46z"/>
<path d="M9206 6522 c-3 -4 1 -17 7 -29 76 -130 150 -311 237 -578 23 -71 47
-141 53 -155 l11 -25 4 32 c6 62 -170 527 -268 706 -33 59 -36 62 -44 49z"/>
<path d="M9005 6467 c-22 -12 -41 -30 -43 -40 -4 -20 55 -117 71 -117 19 0 97
50 107 70 12 22 2 49 -33 88 -26 28 -51 28 -102 -1z"/>
<path d="M8770 6426 c0 -16 30 -81 57 -123 18 -29 33 -54 33 -57 0 -3 17 -32
37 -63 28 -44 143 -301 143 -321 0 -2 5 0 10 3 19 12 10 53 -35 156 -61 142
-98 208 -173 317 -56 82 -72 101 -72 88z"/>
<path d="M9113 6307 c-24 -11 -45 -29 -49 -39 -9 -29 5 -73 30 -97 21 -20 25
-20 70 -7 81 25 92 46 56 115 -17 34 -38 52 -58 50 -4 0 -26 -10 -49 -22z"/>
<path d="M9165 6125 c-22 -8 -41 -15 -42 -15 -11 0 1 -61 17 -87 23 -39 43
-41 111 -12 56 24 62 43 29 97 -22 37 -49 40 -115 17z"/>
<path d="M9237 5970 c-62 -19 -74 -61 -34 -121 20 -30 28 -34 75 -37 49 -3 52
-2 58 24 4 15 1 52 -7 83 -16 61 -32 70 -92 51z"/>
<path d="M9083 5813 c-4 -9 8 -76 27 -147 57 -225 60 -244 65 -456 3 -113 8
-243 12 -290 6 -78 7 -82 14 -45 10 49 2 388 -11 510 -16 140 -82 445 -96 445
-3 0 -8 -8 -11 -17z"/>
<path d="M9273 5775 c-17 -7 -34 -18 -37 -24 -11 -18 5 -100 24 -123 16 -21
19 -21 71 -6 l54 15 -2 41 c-4 85 -47 123 -110 97z"/>
<path d="M9293 5590 c-26 -11 -29 -34 -12 -95 15 -56 35 -75 79 -75 59 0 74
17 68 83 -6 71 -27 97 -77 96 -20 0 -46 -4 -58 -9z"/>
<path d="M9543 5543 c10 -49 28 -233 30 -308 1 -39 6 -70 12 -70 17 0 17 104
1 205 -8 52 -18 116 -22 143 -3 26 -11 50 -17 54 -6 4 -8 -4 -4 -24z"/>
<path d="M9356 5400 c-21 -4 -42 -13 -47 -21 -14 -23 -10 -103 7 -127 18 -26
25 -27 92 -7 l52 16 0 59 c0 95 -6 99 -104 80z"/>
<path d="M9360 5187 c-34 -12 -35 -14 -38 -70 -2 -35 2 -64 9 -73 14 -17 64
-18 107 -3 25 8 32 18 37 48 6 38 -8 90 -28 103 -17 11 -46 9 -87 -5z"/>
<path d="M9577 4853 c-6 -257 -24 -347 -107 -558 -65 -163 -64 -160 -52 -181
9 -15 10 -15 17 7 4 13 29 85 56 160 27 75 58 176 69 225 11 49 24 103 29 121
5 18 13 125 17 238 6 179 5 205 -8 205 -13 0 -16 -33 -21 -217z"/>
<path d="M9348 4974 c-25 -13 -28 -20 -28 -69 l0 -54 53 -11 c73 -15 87 -8 87
45 0 24 3 50 6 58 15 40 -64 61 -118 31z"/>
<path d="M9167 4819 c-3 -13 -10 -64 -16 -112 -14 -105 -59 -286 -103 -412
-45 -129 -215 -439 -346 -630 -136 -199 -344 -408 -508 -512 -24 -15 -44 -32
-44 -36 0 -24 99 46 315 222 65 53 160 165 263 306 51 71 192 299 192 311 0 4
29 59 64 123 90 163 168 398 197 590 19 129 19 145 6 159 -14 14 -16 13 -20
-9z"/>
<path d="M9311 4787 c-17 -22 -23 -69 -12 -98 11 -29 60 -45 105 -33 33 8 55
71 38 108 -15 34 -108 50 -131 23z"/>
<path d="M9298 4608 c-27 -9 -31 -18 -53 -110 -8 -31 8 -42 76 -52 36 -5 48
-3 61 11 19 23 38 78 38 113 0 24 -5 29 -44 39 -25 6 -46 11 -48 10 -2 0 -15
-5 -30 -11z"/>
<path d="M9224 4418 c-5 -7 -16 -36 -25 -65 -19 -59 -16 -64 50 -98 44 -22 75
-9 96 41 24 57 20 91 -13 108 -44 23 -98 30 -108 14z"/>
<path d="M9119 4173 c-24 -56 -19 -68 37 -100 64 -35 94 -34 121 6 42 61 28
92 -55 124 -68 27 -80 23 -103 -30z"/>
<path d="M9396 4075 c-11 -8 -16 -15 -11 -15 5 0 4 -5 -3 -12 -7 -7 -12 -19
-12 -27 0 -11 4 -10 13 5 6 12 18 31 25 43 15 25 14 25 -12 6z"/>
<path d="M9045 4020 c-19 -37 -19 -70 0 -70 8 0 35 -16 60 -35 25 -19 51 -32
58 -29 17 6 57 67 57 86 0 21 -98 78 -133 78 -19 0 -31 -8 -42 -30z"/>
<path d="M9305 3882 c-22 -42 -61 -116 -87 -165 -26 -48 -48 -92 -48 -97 0
-63 150 182 171 278 6 29 9 55 7 58 -3 2 -22 -31 -43 -74z"/>
<path d="M8975 3894 c-8 -9 -22 -29 -31 -46 -14 -28 -14 -31 3 -50 30 -34 95
-78 115 -78 20 0 78 82 78 111 0 11 -22 28 -62 48 -70 35 -81 37 -103 15z"/>
<path d="M8868 3718 c-41 -55 -41 -65 -1 -109 20 -22 49 -47 63 -54 25 -13 29
-12 52 13 33 35 59 87 53 104 -7 17 -107 78 -128 78 -8 0 -26 -15 -39 -32z"/>
<path d="M8756 3530 c-20 -28 -36 -54 -36 -59 0 -5 22 -28 50 -51 35 -30 55
-40 69 -35 24 7 81 82 81 106 0 15 -103 89 -123 89 -3 0 -21 -23 -41 -50z"/>
<path d="M9099 3518 c-18 -29 -48 -69 -64 -88 -64 -72 -93 -130 -66 -130 14 0
191 244 191 262 0 24 -31 1 -61 -44z"/>
<path d="M8641 3404 c-11 -8 -29 -30 -41 -49 l-21 -35 47 -55 c26 -30 52 -55
58 -55 5 0 34 26 63 58 l54 57 -47 42 c-52 46 -84 57 -113 37z"/>
<path d="M8476 3251 c-22 -22 -27 -36 -22 -54 8 -32 70 -87 99 -87 27 0 97 46
97 63 -1 32 -88 107 -125 107 -12 0 -34 -13 -49 -29z"/>
<path d="M8849 3204 c-36 -32 -87 -77 -114 -100 -31 -25 -46 -44 -41 -52 9
-14 29 1 149 114 43 41 77 79 75 86 -3 7 -32 -14 -69 -48z"/>
<path d="M8348 3143 c-39 -25 -35 -51 16 -108 l44 -50 38 20 c62 33 64 47 18
102 -46 54 -74 62 -116 36z"/>
<path d="M8003 3054 c-43 -30 -232 -107 -417 -170 -179 -62 -325 -93 -440 -94
-17 -1 -44 -7 -61 -15 -28 -14 -23 -15 70 -11 55 3 123 9 150 15 28 5 78 14
113 20 34 5 75 19 92 31 16 11 63 29 104 40 149 38 348 123 425 182 21 16 21
18 5 17 -11 0 -29 -7 -41 -15z"/>
<path d="M8215 3054 c-52 -27 -58 -37 -37 -65 11 -13 29 -43 41 -66 27 -54 46
-55 102 -4 l44 39 -55 56 c-30 31 -57 56 -60 56 -3 0 -18 -7 -35 -16z"/>
<path d="M8510 2936 c-358 -242 -532 -341 -665 -376 -108 -29 -135 -40 -135
-56 0 -19 5 -18 117 20 186 65 339 145 597 313 152 99 219 151 211 164 -9 14
-12 12 -125 -65z"/>
<path d="M8028 2949 c-32 -16 -58 -35 -58 -42 1 -21 36 -91 53 -106 37 -30
157 23 157 70 0 42 -53 110 -85 109 -5 -1 -36 -14 -67 -31z"/>
<path d="M5711 2951 c-6 -10 -13 -36 -17 -57 -7 -47 14 -71 89 -103 l48 -21
10 28 c6 15 17 39 25 54 28 53 19 73 -42 97 -69 26 -100 27 -113 2z"/>
<path d="M5915 2839 c-15 -28 -25 -60 -23 -72 3 -25 43 -47 97 -54 l36 -5 27
66 27 66 -23 15 c-24 16 -81 35 -103 35 -7 0 -24 -23 -38 -51z"/>
<path d="M7841 2865 c-62 -26 -72 -38 -61 -74 17 -60 44 -101 64 -101 29 0
123 45 128 61 3 8 -5 41 -17 74 -27 70 -36 73 -114 40z"/>
<path d="M6101 2778 c-11 -24 -21 -58 -21 -76 0 -27 4 -32 38 -42 20 -5 54
-13 74 -16 34 -6 38 -4 44 22 4 16 8 49 8 74 1 39 -2 46 -27 58 -15 7 -43 16
-61 19 -31 5 -34 3 -55 -39z"/>
<path d="M7671 2799 c-49 -9 -91 -33 -90 -52 2 -29 37 -112 51 -121 20 -12
123 17 131 38 8 19 -23 134 -37 139 -6 2 -31 0 -55 -4z"/>
<path d="M6977 2784 c-3 -3 -3 -12 0 -20 6 -17 39 -19 49 -3 11 18 -33 39 -49
23z"/>
<path d="M6290 2749 c-1 -8 -3 -39 -6 -69 -7 -68 4 -81 75 -88 l48 -4 16 41
c10 23 17 54 17 70 0 24 -6 31 -32 40 -63 20 -118 25 -118 10z"/>
<path d="M5714 2729 c-8 -14 -1 -20 71 -52 209 -93 585 -222 692 -236 43 -6
114 -19 158 -28 116 -25 508 -25 700 0 167 21 275 45 275 59 0 13 -59 7 -216
-21 -60 -11 -168 -25 -238 -31 -158 -13 -406 -10 -406 6 0 6 -56 17 -142 28
-79 9 -171 24 -205 31 -100 23 -582 200 -638 235 -37 23 -41 24 -51 9z"/>
<path d="M7425 2730 c-41 -13 -55 -36 -55 -87 0 -82 54 -102 148 -56 35 17 37
21 34 58 -6 66 -22 90 -62 92 -19 1 -48 -2 -65 -7z"/>
<path d="M6508 2710 c-19 -12 -53 -113 -45 -135 3 -7 36 -18 77 -25 88 -15 95
-10 104 78 6 60 5 63 -20 72 -42 16 -98 21 -116 10z"/>
<path d="M6706 2668 c-10 -13 -16 -44 -16 -75 0 -63 13 -73 93 -73 63 0 64 1
63 85 -1 53 -4 61 -26 72 -41 21 -96 16 -114 -9z"/>
<path d="M7176 2680 c-21 -4 -42 -13 -47 -21 -11 -17 -1 -99 14 -118 14 -16
130 -11 166 8 21 12 23 18 19 62 -3 26 -11 55 -18 64 -13 16 -66 18 -134 5z"/>
<path d="M6910 2665 c-15 -18 -9 -110 9 -128 6 -6 40 -13 76 -15 62 -4 65 -3
75 22 13 35 13 92 0 117 -9 16 -22 19 -79 19 -49 0 -72 -4 -81 -15z"/>
<path d="M6590 7333 c-14 -2 -41 -9 -61 -14 l-36 -9 -6 -128 c-4 -71 -11 -153
-17 -182 -6 -29 -8 -55 -6 -57 2 -2 22 3 44 12 34 14 46 27 75 83 42 79 77
199 77 259 0 46 -3 48 -70 36z"/>
<path d="M6299 7270 c-95 -25 -92 -21 -85 -109 3 -42 9 -131 12 -198 4 -68 10
-123 15 -123 22 0 79 65 93 108 23 65 51 297 40 321 -9 17 -12 17 -75 1z"/>
<path d="M6015 7184 c-80 -42 -78 -37 -55 -150 12 -54 24 -150 27 -212 l6
-113 24 23 c31 29 62 79 74 120 21 72 8 323 -18 349 -5 5 -31 -3 -58 -17z"/>
<path d="M5763 7043 c-30 -20 -53 -44 -53 -54 0 -10 8 -55 19 -101 10 -46 26
-128 36 -183 23 -134 25 -136 66 -84 30 38 34 51 38 116 4 93 -16 258 -37 306
l-17 37 -52 -37z"/>
<path d="M5540 6913 c-53 -35 -80 -67 -80 -94 0 -16 11 -63 25 -106 13 -43 32
-126 42 -185 10 -62 22 -108 28 -108 16 0 70 59 90 99 16 31 16 44 5 125 -21
164 -55 286 -78 286 -4 0 -19 -7 -32 -17z"/>
<path d="M5309 6712 c-46 -30 -89 -70 -89 -82 0 -6 13 -48 29 -93 29 -84 66
-223 76 -289 3 -21 11 -38 16 -38 6 0 26 15 45 34 34 34 38 50 34 136 -4 106
-59 350 -78 350 -4 0 -19 -8 -33 -18z"/>
<path d="M8200 6704 c-59 -36 -189 -94 -213 -94 -8 0 -20 -7 -27 -15 -16 -19
11 -30 100 -39 100 -11 320 42 320 77 0 19 -91 107 -109 106 -9 0 -41 -16 -71
-35z"/>
<path d="M5900 6480 c-27 -27 -25 -56 5 -76 56 -36 126 36 75 78 -29 23 -55
23 -80 -2z"/>
<path d="M6012 6387 c-38 -45 -15 -117 37 -117 26 0 81 39 81 57 0 4 -9 23
-20 41 -16 26 -26 32 -54 32 -18 0 -38 -6 -44 -13z"/>
<path d="M6132 6267 c-27 -28 -28 -58 -4 -80 27 -24 58 -21 81 9 23 30 27 64
9 82 -19 19 -63 14 -86 -11z"/>
<path d="M6236 6169 c-31 -37 -32 -53 -6 -79 30 -30 74 -26 98 8 18 24 19 31
7 58 -22 53 -61 58 -99 13z"/>
<path d="M6347 6073 c-61 -69 24 -153 88 -88 31 30 31 36 -1 74 -29 35 -63 40
-87 14z"/>
<path d="M6455 5960 c-23 -45 -19 -87 10 -106 41 -26 95 4 95 54 0 30 -45 82
-72 82 -9 0 -24 -13 -33 -30z"/>
<path d="M6560 5850 c-26 -26 -25 -60 1 -94 25 -32 30 -32 68 0 36 30 38 46
10 85 -24 34 -51 37 -79 9z"/>
<path d="M6660 5747 c-52 -26 -28 -126 30 -127 68 -1 92 65 42 113 -32 31 -37
32 -72 14z"/>
<path d="M6746 5601 c-26 -29 -18 -82 16 -100 25 -14 29 -14 55 6 22 16 28 28
26 54 -3 55 -62 79 -97 40z"/>
<path d="M6835 5475 c-32 -31 -31 -53 0 -88 31 -32 67 -35 95 -7 24 24 25 41
5 79 -24 48 -63 54 -100 16z"/>
<path d="M6926 5335 c-14 -13 -26 -29 -26 -35 0 -21 31 -70 51 -81 18 -9 26
-6 50 17 37 35 40 85 7 108 -31 22 -51 20 -82 -9z"/>
<path d="M7016 5199 c-30 -23 -32 -38 -11 -79 19 -37 46 -45 84 -26 36 19 46
47 30 78 -27 51 -61 60 -103 27z"/>
<path d="M7097 5065 c-30 -29 -34 -60 -11 -93 20 -29 46 -28 83 4 35 30 38 44
14 85 -21 36 -49 37 -86 4z"/>
<path d="M7168 4935 c-36 -20 -43 -49 -21 -87 28 -48 58 -54 94 -18 24 23 28
35 23 57 -6 29 -38 63 -58 63 -6 -1 -23 -7 -38 -15z"/>
<path d="M7237 4782 c-25 -15 -28 -21 -24 -55 10 -72 63 -99 105 -54 29 31 28
69 -4 101 -31 30 -39 31 -77 8z"/>
<path d="M7313 4630 c-27 -11 -36 -40 -24 -73 15 -39 47 -52 77 -32 28 18 32
59 8 93 -16 24 -27 26 -61 12z"/>
<path d="M7353 4490 c-46 -18 -37 -110 11 -110 33 0 76 37 76 65 0 37 -46 61
-87 45z"/>
<path d="M7386 4338 c-30 -42 -14 -78 34 -78 68 0 80 92 13 98 -23 2 -35 -3
-47 -20z"/>
<path d="M7440 4215 c-33 -11 -35 -15 -34 -53 0 -23 6 -48 14 -56 18 -22 62
-20 89 5 18 17 21 27 15 52 -8 40 -11 45 -32 56 -10 5 -31 4 -52 -4z"/>
<path d="M7468 4048 c-42 -34 -23 -88 31 -88 52 0 71 55 29 84 -27 19 -39 20
-60 4z"/>
<path d="M7490 3894 c-22 -58 18 -101 65 -70 52 34 39 96 -21 96 -28 0 -36 -5
-44 -26z"/>
<path d="M7512 3777 c-16 -18 0 -71 22 -75 52 -10 88 27 66 68 -12 23 -71 28
-88 7z"/>
<path d="M5041 6504 c-28 -25 -54 -56 -57 -68 -3 -15 9 -58 35 -117 22 -52 51
-137 66 -189 14 -52 28 -101 30 -108 7 -19 64 16 76 46 16 43 9 136 -21 262
-38 163 -53 213 -66 217 -6 2 -34 -17 -63 -43z"/>
<path d="M2586 6333 c-16 -4 -17 -11 -12 -56 11 -82 19 -91 78 -84 28 4 56 11
64 18 14 11 11 51 -8 102 -9 24 -15 27 -57 26 -25 -1 -54 -3 -65 -6z"/>
<path d="M2643 6158 c-27 -13 -27 -13 -9 -97 17 -76 33 -95 73 -87 46 10 93
44 93 66 0 11 -12 44 -27 75 -26 53 -28 55 -68 54 -22 0 -50 -5 -62 -11z"/>
<path d="M2738 5943 c-46 -19 -53 -39 -32 -91 16 -42 50 -72 82 -72 22 0 102
50 102 65 0 5 -10 33 -22 62 -21 50 -23 53 -57 52 -20 -1 -53 -8 -73 -16z"/>
<path d="M2842 5765 c-49 -23 -52 -26 -46 -52 10 -43 33 -83 51 -90 8 -3 40 6
69 20 43 21 54 32 54 50 0 29 -40 91 -60 94 -8 1 -39 -9 -68 -22z"/>
<path d="M2734 5608 c13 -29 31 -54 40 -56 23 -5 20 10 -13 56 -44 59 -53 59
-27 0z"/>
<path d="M2923 5599 c-30 -21 -43 -37 -43 -54 0 -24 73 -125 91 -125 14 0 95
48 109 65 9 11 4 28 -25 79 -43 78 -64 83 -132 35z"/>
<path d="M3160 5557 c0 -8 14 -34 31 -58 17 -24 64 -95 105 -157 41 -61 87
-127 103 -145 15 -17 68 -84 116 -147 155 -202 415 -492 415 -462 0 7 -13 27
-29 45 -16 17 -77 84 -135 149 -58 64 -106 119 -106 123 0 4 -21 30 -46 58
-25 29 -60 72 -77 97 -16 25 -51 70 -77 100 -39 46 -91 117 -180 250 -10 14
-36 55 -60 93 -41 65 -60 82 -60 54z"/>
<path d="M2796 5471 c-4 -6 3 -30 17 -54 13 -23 43 -76 67 -117 24 -41 62
-104 86 -140 47 -71 140 -168 150 -157 4 4 -20 42 -52 84 -71 93 -94 129 -167
253 -67 117 -91 148 -101 131z"/>
<path d="M3080 5443 c-46 -30 -80 -67 -80 -85 0 -25 23 -69 48 -91 23 -21 51
-13 100 28 44 37 43 77 -3 128 -20 20 -36 37 -38 36 -1 0 -13 -7 -27 -16z"/>
<path d="M3146 5255 c-25 -20 -46 -44 -46 -53 0 -10 12 -34 26 -55 19 -28 30
-37 42 -32 10 4 29 11 44 15 16 5 41 18 58 30 l30 21 -20 39 c-20 38 -54 70
-76 70 -6 0 -32 -16 -58 -35z"/>
<path d="M3280 5119 c-19 -10 -40 -19 -46 -19 -6 0 -19 -9 -28 -19 -21 -23
-14 -41 32 -85 37 -35 61 -31 116 16 l38 33 -28 48 c-16 26 -33 47 -39 46 -5
0 -26 -9 -45 -20z"/>
<path d="M3363 4978 c-29 -23 -53 -49 -53 -58 0 -10 17 -37 38 -60 37 -42 39
-43 72 -31 49 16 100 48 100 63 0 15 -87 128 -98 127 -4 0 -31 -19 -59 -41z"/>
<path d="M3490 4832 c-30 -21 -56 -45 -58 -54 -4 -21 70 -98 95 -98 25 0 103
66 103 87 0 17 -66 103 -78 102 -4 0 -32 -17 -62 -37z"/>
<path d="M3609 4691 c-22 -21 -39 -46 -39 -55 0 -9 15 -32 33 -52 l33 -36 57
47 57 46 -36 45 c-20 24 -43 44 -51 44 -9 0 -33 -17 -54 -39z"/>
<path d="M3712 4579 c-17 -12 -35 -32 -39 -46 -5 -22 2 -33 48 -74 29 -27 60
-49 69 -49 15 0 90 66 90 79 0 14 -51 75 -77 93 -36 23 -50 22 -91 -3z"/>
<path d="M3874 4424 c-24 -26 -44 -52 -44 -59 0 -21 45 -79 73 -95 28 -15 29
-14 67 30 46 53 49 72 15 116 -47 61 -61 62 -111 8z"/>
<path d="M4012 4277 c-23 -23 -42 -48 -42 -55 0 -21 88 -102 111 -102 25 0 89
66 89 92 0 21 -83 108 -103 108 -7 0 -32 -19 -55 -43z"/>
<path d="M4172 4137 c-23 -23 -42 -52 -42 -63 0 -11 22 -42 50 -69 l49 -49 51
51 c27 27 50 55 50 60 0 20 -82 113 -99 113 -9 0 -36 -19 -59 -43z"/>
<path d="M4330 3969 c-22 -23 -40 -49 -40 -58 0 -20 77 -111 94 -111 15 0 116
103 116 118 0 17 -91 92 -111 92 -11 0 -37 -19 -59 -41z"/>
<path d="M8378 6484 c-78 -28 -195 -54 -244 -54 -92 0 45 -79 152 -88 76 -6
224 14 251 33 17 12 15 17 -22 72 -22 32 -47 59 -55 60 -8 0 -45 -10 -82 -23z"/>
<path d="M3000 6453 c0 -33 50 -142 73 -161 9 -8 63 -18 123 -24 72 -6 128
-18 168 -34 33 -13 63 -24 68 -24 18 0 6 31 -30 77 -52 65 -183 144 -285 172
-104 28 -117 28 -117 -6z"/>
<path d="M4818 6288 c-73 -86 -73 -87 -32 -163 49 -93 102 -225 110 -272 10
-67 20 -73 54 -34 36 42 52 110 40 171 -10 50 -89 279 -112 323 l-14 28 -46
-53z"/>
<path d="M8220 6227 c0 -5 26 -35 58 -68 49 -51 65 -61 122 -76 75 -19 250
-23 293 -5 l27 12 -45 67 c-25 37 -45 70 -45 74 0 4 -92 6 -205 6 -113 -1
-205 -6 -205 -10z"/>
<path d="M3144 6135 c-4 -10 7 -43 28 -83 l35 -67 124 3 c83 2 143 -2 182 -11
31 -8 60 -11 63 -6 9 15 -78 99 -122 120 -53 23 -147 45 -236 54 -58 6 -69 5
-74 -10z"/>
<path d="M4591 6045 c-22 -30 -41 -59 -41 -65 0 -6 20 -43 44 -83 51 -84 133
-246 151 -297 l12 -34 17 27 c33 50 32 130 -4 242 -38 117 -108 265 -125 265
-7 0 -31 -25 -54 -55z"/>
<path d="M8396 5920 c23 -39 48 -53 172 -92 125 -39 263 -42 262 -5 0 7 -13
37 -28 67 l-27 55 -50 -5 c-82 -7 -226 -6 -289 4 l-59 9 19 -33z"/>
<path d="M4437 5858 c-22 -17 -67 -79 -67 -93 0 -7 27 -50 61 -96 33 -46 83
-127 111 -179 66 -123 68 -125 83 -103 7 10 17 34 24 54 10 33 8 46 -18 124
-36 104 -102 230 -143 274 -34 36 -30 34 -51 19z"/>
<path d="M3306 5861 c-10 -15 69 -180 89 -187 8 -3 54 1 102 10 49 9 118 16
156 16 51 0 67 3 67 14 0 21 -76 80 -150 117 -56 28 -78 33 -161 37 -66 3 -98
1 -103 -7z"/>
<path d="M8490 5696 c0 -7 18 -34 41 -60 59 -67 157 -112 277 -126 106 -13
122 -10 122 23 0 28 -29 115 -40 122 -5 3 -60 7 -122 10 -72 2 -139 11 -185
24 -86 25 -93 25 -93 7z"/>
<path d="M4231 5585 c-17 -30 -31 -60 -31 -66 0 -6 30 -43 66 -81 73 -78 179
-217 189 -248 17 -52 50 17 42 87 -11 96 -174 363 -222 363 -7 0 -27 -25 -44
-55z"/>
<path d="M3545 5569 c-27 -6 -54 -14 -58 -18 -10 -10 62 -143 96 -179 15 -16
28 -21 43 -18 53 14 263 46 297 46 20 0 37 5 37 10 0 22 -97 107 -151 133 -63
31 -181 43 -264 26z"/>
<path d="M8583 5433 c-12 -30 30 -86 95 -130 67 -45 201 -93 267 -96 l39 -2
-2 40 c-2 22 -11 56 -20 75 -15 31 -23 36 -67 43 -103 15 -192 38 -244 62 -63
30 -60 29 -68 8z"/>
<path d="M3803 5259 c-34 -4 -71 -13 -82 -19 -20 -10 -20 -13 -7 -39 8 -15 33
-44 55 -64 l40 -36 68 20 c119 35 165 42 232 35 l64 -6 -24 27 c-27 29 -90 60
-164 79 -55 15 -88 16 -182 3z"/>
<path d="M8610 5162 c0 -32 61 -112 119 -159 69 -54 184 -112 231 -115 l35 -3
1 72 c1 43 -3 76 -10 81 -6 5 -51 21 -101 36 -49 15 -128 45 -174 67 -96 45
-101 46 -101 21z"/>
<path d="M3998 5015 c-37 -7 -72 -17 -78 -20 -18 -11 -11 -33 21 -70 51 -58
60 -60 149 -30 43 14 124 32 180 38 55 7 101 17 102 22 1 6 -20 23 -47 40 -45
28 -56 30 -154 32 -61 1 -135 -4 -173 -12z"/>
<path d="M8574 4940 c-15 -15 0 -111 26 -165 31 -63 235 -245 276 -245 8 0 23
32 39 81 32 103 32 117 -2 125 -62 15 -190 91 -254 151 -37 35 -68 63 -71 63
-2 0 -9 -5 -14 -10z"/>
<path d="M2969 4495 c-11 -25 -19 -53 -17 -63 4 -20 74 -62 105 -62 29 0 55
40 57 88 1 34 -2 39 -44 60 -65 32 -78 29 -101 -23z"/>
<path d="M2913 4352 c-16 -10 -29 -50 -28 -92 0 -34 1 -35 57 -49 66 -17 78
-11 98 48 15 47 10 58 -44 82 -44 20 -64 23 -83 11z"/>
<path d="M2772 4254 c-49 -96 -111 -374 -174 -774 -29 -190 -31 -541 -4 -660
10 -41 24 -106 31 -145 27 -139 94 -363 160 -529 102 -258 408 -716 479 -716
12 0 16 3 10 8 -6 4 -23 25 -38 47 -14 22 -49 67 -77 100 -119 143 -277 417
-359 623 -103 260 -147 413 -179 612 -16 103 -38 330 -34 350 1 3 7 53 13 110
31 288 99 641 162 838 30 96 39 135 31 143 -8 8 -14 6 -21 -7z"/>
<path d="M2846 4164 c-20 -19 -29 -53 -24 -90 2 -24 10 -32 45 -44 63 -21 93
-7 112 53 17 55 11 66 -48 86 -46 15 -67 14 -85 -5z"/>
<path d="M2785 3941 c-9 -29 -14 -59 -11 -67 7 -19 67 -44 106 -44 26 0 33 6
46 35 31 75 10 109 -78 121 l-46 6 -17 -51z"/>
<path d="M2783 3793 c-42 -5 -51 -18 -54 -78 -3 -46 -1 -51 24 -63 15 -7 46
-14 69 -15 l41 -2 15 64 c12 53 12 66 0 77 -16 16 -53 22 -95 17z"/>
<path d="M2738 3598 c-17 -6 -28 -17 -28 -28 0 -9 -2 -30 -5 -46 -8 -40 5 -54
61 -69 46 -12 50 -12 67 7 11 14 17 37 17 73 0 49 -2 53 -27 59 -16 4 -35 9
-43 11 -8 2 -27 -1 -42 -7z"/>
<path d="M2693 3398 c-16 -21 -22 -69 -11 -99 14 -41 102 -66 126 -36 5 6 13
35 17 63 6 47 4 53 -16 68 -28 19 -102 21 -116 4z"/>
<path d="M2700 3213 c-8 -3 -18 -11 -22 -17 -12 -18 -9 -131 4 -144 16 -16
103 -15 115 1 15 18 23 143 10 156 -11 11 -81 14 -107 4z"/>
<path d="M2686 2988 c-19 -26 -20 -53 -5 -96 13 -37 36 -46 95 -37 l44 6 0 63
c0 35 -5 67 -12 74 -7 7 -33 12 -59 12 -38 0 -51 -5 -63 -22z"/>
<path d="M2764 2803 c-12 -2 -30 -13 -39 -23 -27 -29 -10 -101 26 -114 29 -10
65 -4 92 17 17 12 18 17 5 67 -14 58 -26 65 -84 53z"/>
<path d="M2800 2626 c-42 -10 -45 -13 -48 -47 -2 -19 2 -47 7 -61 10 -26 12
-26 68 -21 32 3 62 9 67 14 9 8 -22 105 -39 118 -5 5 -30 3 -55 -3z"/>
<path d="M2815 2447 c-14 -11 -17 -22 -12 -56 10 -74 50 -96 126 -70 17 6 31
13 31 16 0 20 -26 91 -38 106 -18 21 -80 23 -107 4z"/>
<path d="M2903 2270 c-17 -7 -23 -18 -23 -39 0 -41 36 -121 55 -121 21 0 105
40 105 51 0 5 -12 33 -27 64 -24 49 -30 55 -58 54 -16 0 -40 -4 -52 -9z"/>
<path d="M2971 2076 c-27 -28 -22 -59 18 -106 l27 -33 52 17 c29 10 52 21 52
26 0 15 -32 85 -48 103 -22 25 -74 22 -101 -7z"/>
<path d="M3088 1905 c-21 -14 -38 -28 -38 -31 0 -22 48 -86 68 -91 28 -7 92
21 92 39 -1 7 -11 33 -23 58 -27 54 -48 60 -99 25z"/>
<path d="M3184 1746 c-26 -22 -27 -25 -14 -55 7 -18 24 -40 37 -48 22 -15 26
-15 50 3 47 35 50 48 19 88 -32 42 -54 45 -92 12z"/>
<path d="M3278 1622 c-34 -21 -35 -28 -3 -75 20 -28 33 -37 54 -37 59 0 82 72
35 109 -32 25 -50 26 -86 3z"/>
<path d="M3395 1512 c-34 -25 -36 -39 -9 -71 33 -39 57 -39 84 0 l22 30 -23
25 c-22 24 -54 31 -74 16z"/>
<path d="M3337 1353 c151 -147 214 -204 224 -201 22 7 12 24 -31 53 -25 16
-86 69 -137 117 -50 49 -97 88 -103 88 -7 0 15 -26 47 -57z"/>
<path d="M4275 4800 c-84 -22 -165 -56 -165 -68 0 -17 89 -92 109 -92 10 0 44
11 75 25 66 29 226 59 274 51 23 -3 32 -1 29 7 -7 22 -107 75 -155 81 -26 4
-58 9 -72 11 -14 2 -56 -4 -95 -15z"/>
<path d="M8546 4568 c11 -74 58 -158 129 -231 77 -78 112 -104 125 -91 9 9 42
126 37 129 -1 1 -29 19 -62 41 -33 21 -96 74 -141 116 -45 43 -84 78 -88 78
-3 0 -3 -19 0 -42z"/>
<path d="M4515 4599 c-68 -16 -185 -61 -185 -71 0 -13 30 -59 59 -90 29 -33
49 -35 99 -9 67 34 218 81 260 81 46 0 60 13 40 37 -37 46 -185 74 -273 52z"/>
<path d="M6276 4251 c-23 -26 -13 -59 21 -67 58 -15 86 44 34 70 -37 20 -34
20 -55 -3z"/>
<path d="M6205 4164 c-27 -27 0 -84 39 -84 49 0 61 47 20 79 -32 25 -38 26
-59 5z"/>
<path d="M6124 4086 c-18 -46 35 -108 74 -87 36 19 36 44 1 74 -36 30 -67 35
-75 13z"/>
<path d="M6075 3986 c-21 -15 -16 -55 7 -70 23 -14 72 4 76 27 7 33 -55 64
-83 43z"/>
<path d="M5997 3913 c-11 -11 -8 -48 5 -61 31 -31 89 -1 69 36 -15 27 -58 42
-74 25z"/>
<path d="M5927 3832 c-22 -25 -21 -34 6 -60 28 -26 40 -27 61 -6 22 21 20 31
-10 59 -32 30 -36 30 -57 7z"/>
<path d="M5852 3758 c-17 -17 -15 -73 4 -89 20 -17 42 -3 68 41 19 32 19 33 1
46 -23 17 -57 18 -73 2z"/>
<path d="M5790 3662 c-28 -8 -40 -32 -28 -57 15 -32 36 -39 65 -20 44 29 14
93 -37 77z"/>
<path d="M5692 3575 c-24 -11 -32 -20 -32 -39 0 -41 11 -56 40 -56 33 0 60 28
60 63 0 36 -27 49 -68 32z"/>
<path d="M5582 3478 c-20 -20 -15 -76 7 -88 11 -5 24 -10 30 -10 16 0 51 38
51 55 0 21 -36 55 -58 55 -10 0 -23 -5 -30 -12z"/>
<path d="M5472 3388 c-7 -7 -12 -27 -12 -45 0 -59 66 -64 92 -7 9 19 8 28 -7
44 -20 22 -55 26 -73 8z"/>
<path d="M5345 3300 c-8 -16 -15 -34 -15 -40 0 -15 38 -50 55 -50 23 0 55 37
55 64 0 27 -33 56 -62 56 -10 0 -24 -13 -33 -30z"/>
<path d="M5220 3212 c-21 -17 -21 -19 -7 -55 18 -41 46 -49 85 -21 24 17 30
62 10 82 -18 18 -63 15 -88 -6z"/>
<path d="M5107 3142 c-23 -25 -21 -53 3 -80 26 -27 50 -28 78 -2 27 25 28 41
5 68 -26 31 -65 37 -86 14z"/>
<path d="M4996 3064 c-33 -32 -6 -104 38 -104 28 0 66 39 66 68 0 43 -72 68
-104 36z"/>
<path d="M4876 2988 c-22 -31 -20 -64 4 -88 27 -27 41 -25 73 8 33 34 35 66 5
86 -32 22 -64 20 -82 -6z"/>
<path d="M4760 2927 c-43 -21 -36 -117 8 -117 23 0 72 50 72 73 0 17 -33 57
-47 57 -5 0 -19 -6 -33 -13z"/>
<path d="M4625 2856 c-13 -19 -13 -28 -4 -50 16 -33 44 -42 74 -22 29 19 30
27 10 66 -19 38 -58 40 -80 6z"/>
<path d="M4500 2811 c-24 -46 0 -91 48 -91 51 0 63 47 24 93 -20 23 -59 22
-72 -2z"/>
<path d="M4378 2765 c-8 -19 -8 -31 0 -50 16 -34 37 -41 67 -21 44 29 26 96
-26 96 -22 0 -32 -6 -41 -25z"/>
<path d="M4268 2739 c-36 -21 -15 -99 27 -99 35 0 58 27 50 59 -12 49 -39 63
-77 40z"/>
<path d="M4152 2701 c-24 -20 -28 -42 -12 -72 12 -22 59 -26 78 -7 18 18 14
63 -6 81 -24 22 -34 21 -60 -2z"/>
<path d="M4022 2678 c-26 -26 -4 -98 29 -98 29 0 49 22 49 53 0 38 -15 57 -45
57 -12 0 -26 -5 -33 -12z"/>
<path d="M3922 2654 c-17 -12 -22 -24 -20 -46 4 -37 26 -53 61 -44 23 5 27 12
27 44 0 59 -26 76 -68 46z"/>
<path d="M3807 2642 c-42 -46 8 -133 51 -90 17 17 15 74 -4 92 -20 20 -27 20
-47 -2z"/>
<path d="M8452 4366 c-36 -81 10 -213 130 -373 l42 -55 21 24 c21 26 88 118
93 130 2 3 -22 25 -53 48 -49 36 -99 92 -195 219 l-26 34 -12 -27z"/>
<path d="M4770 4389 c-101 -29 -220 -80 -220 -93 0 -15 104 -106 121 -106 7 0
32 12 56 26 67 39 181 84 246 98 l58 12 -45 32 c-26 19 -66 36 -97 42 -28 6
-52 10 -53 9 0 0 -30 -9 -66 -20z"/>
<path d="M8311 4113 c-25 -55 -24 -142 3 -232 27 -88 92 -211 112 -211 16 0
104 96 104 114 0 8 -27 54 -60 101 -68 97 -81 121 -111 199 -11 31 -24 56 -28
56 -4 0 -13 -12 -20 -27z"/>
<path d="M3300 4053 l-32 -67 24 -19 c12 -11 45 -30 73 -44 64 -33 151 -108
205 -178 53 -69 67 -61 45 24 -23 89 -61 164 -111 220 -46 51 -144 131 -161
131 -6 0 -25 -30 -43 -67z"/>
<path d="M8127 3883 c-46 -51 -50 -168 -11 -286 26 -79 70 -167 83 -167 6 0
47 31 139 105 2 2 -12 25 -31 52 -60 85 -81 125 -112 217 -17 49 -36 91 -41
93 -6 2 -18 -5 -27 -14z"/>
<path d="M3232 3804 c-13 -24 -45 -134 -40 -139 1 -1 39 -17 83 -34 94 -38
152 -70 218 -123 27 -21 53 -38 58 -38 19 0 8 67 -19 117 -58 112 -177 220
-251 230 -31 4 -41 2 -49 -13z"/>
<path d="M7922 3697 c-25 -26 -62 -159 -62 -221 0 -51 25 -157 45 -197 l16
-30 61 33 c33 17 62 37 65 44 2 6 -7 37 -21 68 -40 89 -48 124 -55 225 -3 52
-11 96 -17 98 -5 2 -20 -7 -32 -20z"/>
<path d="M7697 3551 c-51 -61 -89 -238 -79 -368 5 -72 10 -75 98 -48 81 25 80
22 54 116 -15 58 -24 121 -26 204 -3 66 -8 121 -13 123 -5 2 -20 -11 -34 -27z"/>
<path d="M3162 3488 c-6 -24 -13 -63 -14 -88 l-3 -45 109 -37 c117 -39 134
-47 209 -92 57 -34 71 -26 63 36 -11 98 -181 239 -317 263 -36 7 -36 6 -47
-37z"/>
<path d="M7439 3413 c-23 -21 -52 -60 -64 -88 -28 -60 -58 -199 -53 -247 3
-33 4 -33 48 -30 25 1 62 7 82 13 l37 10 -1 157 c-1 86 2 172 6 190 10 43 -4
41 -55 -5z"/>
<path d="M6389 3406 c-77 -27 -227 -143 -279 -215 l-29 -39 64 -27 c35 -15 70
-25 78 -22 8 3 46 43 84 89 39 46 100 111 137 146 37 34 64 67 61 72 -9 14
-73 12 -116 -4z"/>
<path d="M7215 3386 c-44 -19 -79 -65 -131 -172 -34 -69 -47 -110 -51 -156 -6
-56 -5 -61 12 -54 10 4 45 9 77 13 32 3 62 11 67 17 5 6 11 49 13 96 4 75 23
150 63 253 9 21 -7 22 -50 3z"/>
<path d="M6629 3347 c-86 -42 -262 -250 -246 -291 6 -15 97 -31 132 -24 11 2
46 49 85 114 36 61 81 131 98 155 18 23 32 48 32 53 0 19 -56 15 -101 -7z"/>
<path d="M6979 3371 c-111 -34 -235 -182 -279 -333 -10 -33 -7 -34 91 -37 93
-3 104 6 114 85 10 79 28 126 80 204 60 90 59 100 -6 81z"/>
<path d="M3139 3183 c-5 -15 -9 -52 -7 -82 l3 -56 69 -8 c78 -8 137 -24 241
-61 39 -14 71 -26 73 -26 9 0 -1 58 -17 88 -38 75 -117 125 -236 152 -114 25
-114 25 -126 -7z"/>
<path d="M3144 2865 c-3 -6 2 -40 9 -75 l13 -65 95 3 c54 1 138 -4 197 -14 56
-9 105 -14 109 -11 10 11 -48 97 -75 111 -75 39 -338 77 -348 51z"/>
<path d="M3350 2599 c-84 -9 -140 -32 -140 -57 0 -25 31 -115 42 -123 4 -3 41
3 81 13 39 10 125 22 190 25 65 3 120 10 122 14 8 11 -14 62 -37 86 -32 34
-152 54 -258 42z"/>
<path d="M3417 2321 c-37 -10 -77 -27 -88 -37 -20 -20 -20 -20 6 -66 40 -72
45 -74 118 -45 107 43 238 77 296 77 l54 0 -24 26 c-43 48 -94 64 -199 63 -58
0 -122 -7 -163 -18z"/>
<path d="M7356 2187 c-12 -9 -17 -23 -14 -47 3 -29 7 -35 35 -41 36 -7 45 -3
62 29 26 49 -36 93 -83 59z"/>
<path d="M7292 2068 c-30 -30 -3 -98 38 -98 40 0 70 90 34 104 -25 10 -59 7
-72 -6z"/>
<path d="M7216 1941 c-22 -31 -25 -43 -17 -63 25 -66 121 -36 121 38 0 22 -7
34 -29 47 -40 24 -45 22 -75 -22z"/>
<path d="M7152 1818 c-20 -20 -15 -66 9 -79 17 -9 25 -7 45 12 28 27 30 47 7
65 -22 17 -45 18 -61 2z"/>
<path d="M7050 1710 c-26 -26 -25 -42 5 -70 23 -22 26 -22 49 -7 34 23 42 54
20 78 -22 24 -49 24 -74 -1z"/>
<path d="M6968 1619 c-28 -16 -40 -46 -28 -68 23 -44 82 -34 95 16 5 22 2 31
-15 45 -25 21 -29 21 -52 7z"/>
<path d="M6815 1496 c-36 -55 33 -92 74 -40 16 20 18 31 10 45 -15 28 -65 25
-84 -5z"/>
<path d="M6701 1411 c-16 -28 -13 -71 4 -77 8 -3 27 -2 42 3 24 8 28 15 28 49
0 37 -2 39 -32 42 -23 2 -34 -2 -42 -17z"/>
<path d="M6578 1335 c-15 -32 0 -78 26 -83 26 -5 63 17 70 42 15 57 -72 94
-96 41z"/>
<path d="M6445 1275 c-14 -13 -25 -33 -25 -44 0 -25 26 -51 50 -51 25 0 71 56
63 78 -17 49 -51 55 -88 17z"/>
<path d="M6312 1218 c-48 -24 -35 -98 17 -98 29 0 61 26 61 51 0 20 -29 59
-43 58 -7 0 -22 -5 -35 -11z"/>
<path d="M6154 1136 c-13 -22 -14 -29 -2 -53 15 -31 41 -39 81 -24 19 7 27 18
27 34 0 62 -73 92 -106 43z"/>
<path d="M6038 1119 c-22 -13 -23 -52 -2 -73 19 -20 68 -21 83 -2 8 10 9 25 3
48 -7 27 -13 33 -38 35 -16 2 -37 -2 -46 -8z"/>
<path d="M5926 1074 c-21 -21 -20 -47 3 -75 16 -20 23 -22 47 -13 24 8 29 15
27 42 -2 57 -43 81 -77 46z"/>
<path d="M5812 1048 c-33 -33 6 -96 52 -84 32 8 42 40 22 71 -18 27 -54 33
-74 13z"/>
<path d="M5711 1026 c-7 -8 -11 -27 -9 -43 3 -25 7 -28 38 -28 29 0 36 4 38
23 4 25 -23 62 -43 62 -7 0 -18 -6 -24 -14z"/>
<path d="M3636 2104 c-91 -22 -175 -63 -182 -89 -3 -14 5 -39 24 -71 35 -60
39 -60 170 1 104 47 200 80 270 91 23 4 42 10 42 14 0 4 -16 22 -35 39 -35 30
-38 31 -133 30 -53 0 -124 -7 -156 -15z"/>
<path d="M3970 1920 c-31 -4 -80 -15 -110 -25 -81 -26 -250 -113 -250 -128 0
-21 58 -107 72 -107 7 1 31 14 53 30 61 44 224 136 280 158 28 11 74 23 102
27 59 8 75 22 48 42 -20 14 -100 15 -195 3z"/>
<path d="M4778 1843 c-24 -6 -23 -13 9 -79 l28 -56 55 7 c30 4 58 9 63 12 12
7 8 52 -8 83 -14 26 -21 30 -59 30 -25 0 -50 2 -58 4 -7 2 -21 2 -30 -1z"/>
<path d="M5050 1820 c0 -12 7 -34 15 -50 15 -30 17 -30 100 -30 47 0 85 3 85
6 0 4 -10 23 -21 44 -25 43 -40 50 -121 50 -52 0 -58 -2 -58 -20z"/>
<path d="M4422 1813 c-18 -3 -35 -10 -38 -18 -6 -14 70 -170 87 -181 15 -9
189 56 189 71 0 21 -47 117 -62 126 -13 9 -113 9 -176 2z"/>
<path d="M4165 1716 c-62 -15 -95 -33 -95 -50 0 -7 22 -58 50 -114 46 -95 51
-102 79 -102 21 0 44 14 85 51 63 57 68 77 37 146 -31 68 -77 88 -156 69z"/>
<path d="M3862 1586 c-55 -40 -95 -105 -103 -166 -5 -33 -4 -59 2 -65 11 -11
190 -17 244 -8 30 5 35 9 35 33 0 54 -40 158 -74 195 -39 41 -61 44 -104 11z"/>
<path d="M4093 1226 c-38 -17 -116 -127 -111 -158 2 -17 21 -29 83 -55 85 -34
136 -41 153 -20 7 8 9 46 5 107 -5 80 -10 98 -29 117 -26 26 -55 28 -101 9z"/>
<path d="M4361 1211 c-10 -7 -12 -24 -6 -72 15 -145 45 -185 129 -175 27 3 53
11 58 18 11 15 2 123 -13 167 -9 24 -19 33 -52 41 -23 6 -55 15 -71 20 -34 12
-28 12 -45 1z"/>
<path d="M3804 1205 c-10 -24 4 -45 29 -45 25 0 57 28 57 48 0 18 -79 15 -86
-3z"/>
<path d="M4657 1157 c-16 -11 -17 -21 -8 -92 13 -106 28 -119 126 -112 39 2
88 11 110 19 l40 14 -1 53 c-1 30 -8 58 -15 65 -8 7 -57 22 -109 34 -52 11
-102 23 -110 26 -9 4 -24 1 -33 -7z"/>
<path d="M5054 996 c-10 -43 3 -61 62 -81 l57 -19 24 28 c34 40 26 58 -32 78
-75 25 -103 23 -111 -6z"/>
<path d="M5355 914 c-23 -24 -18 -40 19 -63 46 -29 90 -28 103 2 12 27 -1 39
-68 62 -33 12 -41 12 -54 -1z"/>
<path d="M4885 826 c-60 -92 -14 -190 90 -188 46 0 71 12 113 51 33 33 31 102
-5 130 -27 22 -70 37 -79 28 -3 -3 15 -26 40 -52 46 -47 64 -96 29 -76 -10 5
-34 25 -52 45 -19 20 -41 36 -48 36 -7 0 -13 11 -13 25 0 21 -5 25 -30 25 -20
0 -34 -8 -45 -24z"/>
<path d="M5575 842 c-3 -3 -5 -18 -5 -33 0 -48 79 -79 114 -44 8 9 13 22 10
29 -6 15 -110 57 -119 48z"/>
<path d="M5651 583 c-25 -21 -21 -47 11 -64 28 -15 50 6 46 45 -4 37 -26 44
-57 19z"/>
</g>
</svg>
